  0
SECTION
  2
HEADER
  9
$ACADVER
  1
AC1014
  9
$HANDSEED
  5
FFFF
  9
$MEASUREMENT
 70
     1
  0
ENDSEC
  0
SECTION
  2
TABLES
  0
TABLE
  2
VPORT
  5
8
330
0
100
AcDbSymbolTable
 70
     4
  0
VPORT
  5
2E
330
8
100
AcDbSymbolTableRecord
100
AcDbViewportTableRecord
  2
*ACTIVE
 70
     0
 10
0.0
 20
0.0
 11
1.0
 21
1.0
 12
210.0
 22
148.5
 13
0.0
 23
0.0
 14
10.0
 24
10.0
 15
10.0
 25
10.0
 16
0.0
 26
0.0
 36
1.0
 17
0.0
 27
0.0
 37
0.0
 40
341.0
 41
1.24
 42
50.0
 43
0.0
 44
0.0
 50
0.0
 51
0.0
 71
     0
 72
   100
 73
     1
 74
     3
 75
     0
 76
     0
 77
     0
 78
     0
  0
ENDTAB
  0
TABLE
  2
LTYPE
  5
5
330
0
100
AcDbSymbolTable
 70
     1
  0
LTYPE
  5
14
330
5
100
AcDbSymbolTableRecord
100
AcDbLinetypeTableRecord
  2
BYBLOCK
 70
     0
  3

 72
    65
 73
     0
 40
0.0
  0
LTYPE
  5
15
330
5
100
AcDbSymbolTableRecord
100
AcDbLinetypeTableRecord
  2
BYLAYER
 70
     0
  3

 72
    65
 73
     0
 40
0.0
  0
LTYPE
  5
16
330
5
100
AcDbSymbolTableRecord
100
AcDbLinetypeTableRecord
  2
CONTINUOUS
 70
     0
  3
Solid line
 72
    65
 73
     0
 40
0.0
  0
ENDTAB
  0
TABLE
  2
LAYER
  5
2
100
AcDbSymbolTable
 70
2
  0
LAYER
  5
50
100
AcDbSymbolTableRecord
100
AcDbLayerTableRecord
  2
0
 70
0
  6
CONTINUOUS
  0
LAYER
  5
51
100
AcDbSymbolTableRecord
100
AcDbLayerTableRecord
  2
Layer_1
 70
0
  6
CONTINUOUS
  0
ENDTAB
  0
TABLE
  2
STYLE
  5
3
330
0
100
AcDbSymbolTable
 70
     1
  0
STYLE
  5
11
330
3
100
AcDbSymbolTableRecord
100
AcDbTextStyleTableRecord
  2
STANDARD
 70
     0
 40
0.0
 41
1.0
 50
0.0
 71
     0
 42
2.5
  3
txt
  4

  0
ENDTAB
  0
TABLE
  2
VIEW
  5
6
330
0
100
AcDbSymbolTable
 70
     0
  0
ENDTAB
  0
TABLE
  2
UCS
  5
7
330
0
100
AcDbSymbolTable
 70
     0
  0
ENDTAB
  0
TABLE
  2
APPID
  5
9
330
0
100
AcDbSymbolTable
 70
     2
  0
APPID
  5
12
330
9
100
AcDbSymbolTableRecord
100
AcDbRegAppTableRecord
  2
ACAD
 70
     0
  0
ENDTAB
  0
TABLE
  2
DIMSTYLE
  5
A
330
0
100
AcDbSymbolTable
 70
     1
  0
DIMSTYLE
105
27
330
A
100
AcDbSymbolTableRecord
100
AcDbDimStyleTableRecord
  2
ISO-25
 70
     0
  3

  4

  5

  6

  7

 40
1.0
 41
2.5
 42
0.625
 43
3.75
 44
1.25
 45
0.0
 46
0.0
 47
0.0
 48
0.0
140
2.5
141
2.5
142
0.0
143
0.03937007874016
144
1.0
145
0.0
146
1.0
147
0.625
 71
     0
 72
     0
 73
     0
 74
     0
 75
     0
 76
     0
 77
     1
 78
     8
170
     0
171
     3
172
     1
173
     0
174
     0
175
     0
176
     0
177
     0
178
     0
270
     2
271
     2
272
     2
273
     2
274
     3
340
11
275
     0
280
     0
281
     0
282
     0
283
     0
284
     8
285
     0
286
     0
287
     3
288
     0
  0
ENDTAB
  0
TABLE
  2
BLOCK_RECORD
  5
1
330
0
100
AcDbSymbolTable
 70
     1
  0
BLOCK_RECORD
  5
1F
330
1
100
AcDbSymbolTableRecord
100
AcDbBlockTableRecord
  2
*MODEL_SPACE
  0
BLOCK_RECORD
  5
1B
330
1
100
AcDbSymbolTableRecord
100
AcDbBlockTableRecord
  2
*PAPER_SPACE
  0
ENDTAB
  0
ENDSEC
  0
SECTION
  2
BLOCKS
  0
BLOCK
  5
20
330
1F
100
AcDbEntity
  8
0
100
AcDbBlockBegin
  2
*MODEL_SPACE
 70
     0
 10
0.0
 20
0.0
 30
0.0
  3
*MODEL_SPACE
  1

  0
ENDBLK
  5
21
330
1F
100
AcDbEntity
  8
0
100
AcDbBlockEnd
  0
BLOCK
  5
1C
330
1B
100
AcDbEntity
 67
     1
  8
0
100
AcDbBlockBegin
  2
*PAPER_SPACE
  1

  0
ENDBLK
  5
1D
330
1B
100
AcDbEntity
 67
     1
  8
0
100
AcDbBlockEnd
  0
ENDSEC
  0
SECTION
  2
ENTITIES
  0
LINE
  5
100
100
AcDbEntity
  8
Layer_1
 62
7
100
AcDbLine
 10
8.721242
 20
33.664244
 30
0.0
 11
8.721242
 21
31.472884
 31
0.0
  0
LINE
  5
101
100
AcDbEntity
  8
Layer_1
 62
7
100
AcDbLine
 10
8.721242
 20
31.472884
 30
0.0
 11
8.721242
 21
29.281444
 31
0.0
  0
LINE
  5
102
100
AcDbEntity
  8
Layer_1
 62
7
100
AcDbLine
 10
8.721242
 20
29.281444
 30
0.0
 11
8.721242
 21
27.090084
 31
0.0
  0
LINE
  5
103
100
AcDbEntity
  8
Layer_1
 62
7
100
AcDbLine
 10
8.721242
 20
27.090084
 30
0.0
 11
8.721242
 21
24.898644
 31
0.0
  0
LINE
  5
104
100
AcDbEntity
  8
Layer_1
 62
7
100
AcDbLine
 10
8.721242
 20
24.898644
 30
0.0
 11
9.713429
 21
24.898644
 31
0.0
  0
LINE
  5
105
100
AcDbEntity
  8
Layer_1
 62
7
100
AcDbLine
 10
9.713429
 20
24.898644
 30
0.0
 11
10.705616
 21
24.898644
 31
0.0
  0
LINE
  5
106
100
AcDbEntity
  8
Layer_1
 62
7
100
AcDbLine
 10
10.705616
 20
24.898644
 30
0.0
 11
11.697804
 21
24.898644
 31
0.0
  0
LINE
  5
107
100
AcDbEntity
  8
Layer_1
 62
7
100
AcDbLine
 10
11.697804
 20
24.898644
 30
0.0
 11
12.689991
 21
24.898644
 31
0.0
  0
LINE
  5
108
100
AcDbEntity
  8
Layer_1
 62
7
100
AcDbLine
 10
12.689991
 20
24.898644
 30
0.0
 11
13.541554
 21
25.183844
 31
0.0
  0
LINE
  5
109
100
AcDbEntity
  8
Layer_1
 62
7
100
AcDbLine
 10
13.541554
 20
25.183844
 30
0.0
 11
14.393116
 21
25.468964
 31
0.0
  0
LINE
  5
10a
100
AcDbEntity
  8
Layer_1
 62
7
100
AcDbLine
 10
14.393116
 20
25.468964
 30
0.0
 11
15.244679
 21
25.754164
 31
0.0
  0
LINE
  5
10b
100
AcDbEntity
  8
Layer_1
 62
7
100
AcDbLine
 10
15.244679
 20
25.754164
 30
0.0
 11
16.096242
 21
26.039284
 31
0.0
  0
LINE
  5
10c
100
AcDbEntity
  8
Layer_1
 62
7
100
AcDbLine
 10
16.096242
 20
26.039284
 30
0.0
 11
16.397022
 21
26.851764
 31
0.0
  0
LINE
  5
10d
100
AcDbEntity
  8
Layer_1
 62
7
100
AcDbLine
 10
16.397022
 20
26.851764
 30
0.0
 11
16.697804
 21
27.664324
 31
0.0
  0
LINE
  5
10e
100
AcDbEntity
  8
Layer_1
 62
7
100
AcDbLine
 10
16.697804
 20
27.664324
 30
0.0
 11
16.998585
 21
28.476804
 31
0.0
  0
LINE
  5
10f
100
AcDbEntity
  8
Layer_1
 62
7
100
AcDbLine
 10
16.998585
 20
28.476804
 30
0.0
 11
17.299366
 21
29.289284
 31
0.0
  0
LINE
  5
110
100
AcDbEntity
  8
Layer_1
 62
7
100
AcDbLine
 10
17.299366
 20
29.289284
 30
0.0
 11
16.998585
 21
30.097924
 31
0.0
  0
LINE
  5
111
100
AcDbEntity
  8
Layer_1
 62
7
100
AcDbLine
 10
16.998585
 20
30.097924
 30
0.0
 11
16.697804
 21
30.906484
 31
0.0
  0
LINE
  5
112
100
AcDbEntity
  8
Layer_1
 62
7
100
AcDbLine
 10
16.697804
 20
30.906484
 30
0.0
 11
16.397022
 21
31.715124
 31
0.0
  0
LINE
  5
113
100
AcDbEntity
  8
Layer_1
 62
7
100
AcDbLine
 10
16.397022
 20
31.715124
 30
0.0
 11
16.096242
 21
32.523684
 31
0.0
  0
LINE
  5
114
100
AcDbEntity
  8
Layer_1
 62
7
100
AcDbLine
 10
16.096242
 20
32.523684
 30
0.0
 11
15.244679
 21
32.808804
 31
0.0
  0
LINE
  5
115
100
AcDbEntity
  8
Layer_1
 62
7
100
AcDbLine
 10
15.244679
 20
32.808804
 30
0.0
 11
14.393116
 21
33.094004
 31
0.0
  0
LINE
  5
116
100
AcDbEntity
  8
Layer_1
 62
7
100
AcDbLine
 10
14.393116
 20
33.094004
 30
0.0
 11
13.541554
 21
33.379124
 31
0.0
  0
LINE
  5
117
100
AcDbEntity
  8
Layer_1
 62
7
100
AcDbLine
 10
13.541554
 20
33.379124
 30
0.0
 11
12.689991
 21
33.664244
 31
0.0
  0
LINE
  5
118
100
AcDbEntity
  8
Layer_1
 62
7
100
AcDbLine
 10
12.689991
 20
33.664244
 30
0.0
 11
11.697804
 21
33.664244
 31
0.0
  0
LINE
  5
119
100
AcDbEntity
  8
Layer_1
 62
7
100
AcDbLine
 10
11.697804
 20
33.664244
 30
0.0
 11
10.705616
 21
33.664244
 31
0.0
  0
LINE
  5
11a
100
AcDbEntity
  8
Layer_1
 62
7
100
AcDbLine
 10
10.705616
 20
33.664244
 30
0.0
 11
9.713429
 21
33.664244
 31
0.0
  0
LINE
  5
11b
100
AcDbEntity
  8
Layer_1
 62
7
100
AcDbLine
 10
9.713429
 20
33.664244
 30
0.0
 11
8.721242
 21
33.664244
 31
0.0
  0
LINE
  5
11c
100
AcDbEntity
  8
Layer_1
 62
7
100
AcDbLine
 10
5.564991
 20
36.258004
 30
0.0
 11
7.346241
 21
36.258004
 31
0.0
  0
LINE
  5
11d
100
AcDbEntity
  8
Layer_1
 62
7
100
AcDbLine
 10
7.346241
 20
36.258004
 30
0.0
 11
9.127491
 21
36.258004
 31
0.0
  0
LINE
  5
11e
100
AcDbEntity
  8
Layer_1
 62
7
100
AcDbLine
 10
9.127491
 20
36.258004
 30
0.0
 11
10.908742
 21
36.258004
 31
0.0
  0
LINE
  5
11f
100
AcDbEntity
  8
Layer_1
 62
7
100
AcDbLine
 10
10.908742
 20
36.258004
 30
0.0
 11
12.689991
 21
36.258004
 31
0.0
  0
LINE
  5
120
100
AcDbEntity
  8
Layer_1
 62
7
100
AcDbLine
 10
12.689991
 20
36.258004
 30
0.0
 11
14.170460
 21
35.812724
 31
0.0
  0
LINE
  5
121
100
AcDbEntity
  8
Layer_1
 62
7
100
AcDbLine
 10
14.170460
 20
35.812724
 30
0.0
 11
15.650929
 21
35.367444
 31
0.0
  0
LINE
  5
122
100
AcDbEntity
  8
Layer_1
 62
7
100
AcDbLine
 10
15.650929
 20
35.367444
 30
0.0
 11
17.131398
 21
34.922084
 31
0.0
  0
LINE
  5
123
100
AcDbEntity
  8
Layer_1
 62
7
100
AcDbLine
 10
17.131398
 20
34.922084
 30
0.0
 11
18.611866
 21
34.476804
 31
0.0
  0
LINE
  5
124
100
AcDbEntity
  8
Layer_1
 62
7
100
AcDbLine
 10
18.611866
 20
34.476804
 30
0.0
 11
19.115773
 21
33.179924
 31
0.0
  0
LINE
  5
125
100
AcDbEntity
  8
Layer_1
 62
7
100
AcDbLine
 10
19.115773
 20
33.179924
 30
0.0
 11
19.619678
 21
31.883044
 31
0.0
  0
LINE
  5
126
100
AcDbEntity
  8
Layer_1
 62
7
100
AcDbLine
 10
19.619678
 20
31.883044
 30
0.0
 11
20.123585
 21
30.586164
 31
0.0
  0
LINE
  5
127
100
AcDbEntity
  8
Layer_1
 62
7
100
AcDbLine
 10
20.123585
 20
30.586164
 30
0.0
 11
20.627491
 21
29.289284
 31
0.0
  0
LINE
  5
128
100
AcDbEntity
  8
Layer_1
 62
7
100
AcDbLine
 10
20.627491
 20
29.289284
 30
0.0
 11
20.123585
 21
27.984644
 31
0.0
  0
LINE
  5
129
100
AcDbEntity
  8
Layer_1
 62
7
100
AcDbLine
 10
20.123585
 20
27.984644
 30
0.0
 11
19.619678
 21
26.679924
 31
0.0
  0
LINE
  5
12a
100
AcDbEntity
  8
Layer_1
 62
7
100
AcDbLine
 10
19.619678
 20
26.679924
 30
0.0
 11
19.115773
 21
25.375284
 31
0.0
  0
LINE
  5
12b
100
AcDbEntity
  8
Layer_1
 62
7
100
AcDbLine
 10
19.115773
 20
25.375284
 30
0.0
 11
18.611866
 21
24.070564
 31
0.0
  0
LINE
  5
12c
100
AcDbEntity
  8
Layer_1
 62
7
100
AcDbLine
 10
18.611866
 20
24.070564
 30
0.0
 11
17.131398
 21
23.629124
 31
0.0
  0
LINE
  5
12d
100
AcDbEntity
  8
Layer_1
 62
7
100
AcDbLine
 10
17.131398
 20
23.629124
 30
0.0
 11
15.650929
 21
23.187764
 31
0.0
  0
LINE
  5
12e
100
AcDbEntity
  8
Layer_1
 62
7
100
AcDbLine
 10
15.650929
 20
23.187764
 30
0.0
 11
14.170460
 21
22.746324
 31
0.0
  0
LINE
  5
12f
100
AcDbEntity
  8
Layer_1
 62
7
100
AcDbLine
 10
14.170460
 20
22.746324
 30
0.0
 11
12.689991
 21
22.304884
 31
0.0
  0
LINE
  5
130
100
AcDbEntity
  8
Layer_1
 62
7
100
AcDbLine
 10
12.689991
 20
22.304884
 30
0.0
 11
11.697804
 21
22.304884
 31
0.0
  0
LINE
  5
131
100
AcDbEntity
  8
Layer_1
 62
7
100
AcDbLine
 10
11.697804
 20
22.304884
 30
0.0
 11
10.705616
 21
22.304884
 31
0.0
  0
LINE
  5
132
100
AcDbEntity
  8
Layer_1
 62
7
100
AcDbLine
 10
10.705616
 20
22.304884
 30
0.0
 11
9.713429
 21
22.304884
 31
0.0
  0
LINE
  5
133
100
AcDbEntity
  8
Layer_1
 62
7
100
AcDbLine
 10
9.713429
 20
22.304884
 30
0.0
 11
8.721242
 21
22.304884
 31
0.0
  0
LINE
  5
134
100
AcDbEntity
  8
Layer_1
 62
7
100
AcDbLine
 10
8.721242
 20
22.304884
 30
0.0
 11
8.721242
 21
19.961124
 31
0.0
  0
LINE
  5
135
100
AcDbEntity
  8
Layer_1
 62
7
100
AcDbLine
 10
8.721242
 20
19.961124
 30
0.0
 11
8.721242
 21
17.617364
 31
0.0
  0
LINE
  5
136
100
AcDbEntity
  8
Layer_1
 62
7
100
AcDbLine
 10
8.721242
 20
17.617364
 30
0.0
 11
8.721242
 21
15.273684
 31
0.0
  0
LINE
  5
137
100
AcDbEntity
  8
Layer_1
 62
7
100
AcDbLine
 10
8.721242
 20
15.273684
 30
0.0
 11
8.721242
 21
12.929924
 31
0.0
  0
LINE
  5
138
100
AcDbEntity
  8
Layer_1
 62
7
100
AcDbLine
 10
8.721242
 20
12.929924
 30
0.0
 11
7.932179
 21
12.929924
 31
0.0
  0
LINE
  5
139
100
AcDbEntity
  8
Layer_1
 62
7
100
AcDbLine
 10
7.932179
 20
12.929924
 30
0.0
 11
7.143116
 21
12.929924
 31
0.0
  0
LINE
  5
13a
100
AcDbEntity
  8
Layer_1
 62
7
100
AcDbLine
 10
7.143116
 20
12.929924
 30
0.0
 11
6.354054
 21
12.929924
 31
0.0
  0
LINE
  5
13b
100
AcDbEntity
  8
Layer_1
 62
7
100
AcDbLine
 10
6.354054
 20
12.929924
 30
0.0
 11
5.564991
 21
12.929924
 31
0.0
  0
LINE
  5
13c
100
AcDbEntity
  8
Layer_1
 62
7
100
AcDbLine
 10
5.564991
 20
12.929924
 30
0.0
 11
5.564991
 21
18.761924
 31
0.0
  0
LINE
  5
13d
100
AcDbEntity
  8
Layer_1
 62
7
100
AcDbLine
 10
5.564991
 20
18.761924
 30
0.0
 11
5.564991
 21
24.594004
 31
0.0
  0
LINE
  5
13e
100
AcDbEntity
  8
Layer_1
 62
7
100
AcDbLine
 10
5.564991
 20
24.594004
 30
0.0
 11
5.564991
 21
30.426004
 31
0.0
  0
LINE
  5
13f
100
AcDbEntity
  8
Layer_1
 62
7
100
AcDbLine
 10
5.564991
 20
30.426004
 30
0.0
 11
5.564991
 21
36.258004
 31
0.0
  0
LINE
  5
140
100
AcDbEntity
  8
Layer_1
 62
7
100
AcDbLine
 10
30.408742
 20
28.414244
 30
0.0
 11
29.494679
 21
27.961124
 31
0.0
  0
LINE
  5
141
100
AcDbEntity
  8
Layer_1
 62
7
100
AcDbLine
 10
29.494679
 20
27.961124
 30
0.0
 11
28.580617
 21
27.508004
 31
0.0
  0
LINE
  5
142
100
AcDbEntity
  8
Layer_1
 62
7
100
AcDbLine
 10
28.580617
 20
27.508004
 30
0.0
 11
27.666554
 21
27.054884
 31
0.0
  0
LINE
  5
143
100
AcDbEntity
  8
Layer_1
 62
7
100
AcDbLine
 10
27.666554
 20
27.054884
 30
0.0
 11
26.752491
 21
26.601764
 31
0.0
  0
LINE
  5
144
100
AcDbEntity
  8
Layer_1
 62
7
100
AcDbLine
 10
26.752491
 20
26.601764
 30
0.0
 11
26.416554
 21
25.367364
 31
0.0
  0
LINE
  5
145
100
AcDbEntity
  8
Layer_1
 62
7
100
AcDbLine
 10
26.416554
 20
25.367364
 30
0.0
 11
26.080617
 21
24.133044
 31
0.0
  0
LINE
  5
146
100
AcDbEntity
  8
Layer_1
 62
7
100
AcDbLine
 10
26.080617
 20
24.133044
 30
0.0
 11
25.744679
 21
22.898644
 31
0.0
  0
LINE
  5
147
100
AcDbEntity
  8
Layer_1
 62
7
100
AcDbLine
 10
25.744679
 20
22.898644
 30
0.0
 11
25.408742
 21
21.664244
 31
0.0
  0
LINE
  5
148
100
AcDbEntity
  8
Layer_1
 62
7
100
AcDbLine
 10
25.408742
 20
21.664244
 30
0.0
 11
25.740773
 21
20.426004
 31
0.0
  0
LINE
  5
149
100
AcDbEntity
  8
Layer_1
 62
7
100
AcDbLine
 10
25.740773
 20
20.426004
 30
0.0
 11
26.072804
 21
19.187684
 31
0.0
  0
LINE
  5
14a
100
AcDbEntity
  8
Layer_1
 62
7
100
AcDbLine
 10
26.072804
 20
19.187684
 30
0.0
 11
26.404835
 21
17.949364
 31
0.0
  0
LINE
  5
14b
100
AcDbEntity
  8
Layer_1
 62
7
100
AcDbLine
 10
26.404835
 20
17.949364
 30
0.0
 11
26.736866
 21
16.711124
 31
0.0
  0
LINE
  5
14c
100
AcDbEntity
  8
Layer_1
 62
7
100
AcDbLine
 10
26.736866
 20
16.711124
 30
0.0
 11
27.654835
 21
16.261924
 31
0.0
  0
LINE
  5
14d
100
AcDbEntity
  8
Layer_1
 62
7
100
AcDbLine
 10
27.654835
 20
16.261924
 30
0.0
 11
28.572804
 21
15.812724
 31
0.0
  0
LINE
  5
14e
100
AcDbEntity
  8
Layer_1
 62
7
100
AcDbLine
 10
28.572804
 20
15.812724
 30
0.0
 11
29.490773
 21
15.363444
 31
0.0
  0
LINE
  5
14f
100
AcDbEntity
  8
Layer_1
 62
7
100
AcDbLine
 10
29.490773
 20
15.363444
 30
0.0
 11
30.408742
 21
14.914244
 31
0.0
  0
LINE
  5
150
100
AcDbEntity
  8
Layer_1
 62
7
100
AcDbLine
 10
30.408742
 20
14.914244
 30
0.0
 11
31.318898
 21
15.367364
 31
0.0
  0
LINE
  5
151
100
AcDbEntity
  8
Layer_1
 62
7
100
AcDbLine
 10
31.318898
 20
15.367364
 30
0.0
 11
32.229054
 21
15.820484
 31
0.0
  0
LINE
  5
152
100
AcDbEntity
  8
Layer_1
 62
7
100
AcDbLine
 10
32.229054
 20
15.820484
 30
0.0
 11
33.139210
 21
16.273684
 31
0.0
  0
LINE
  5
153
100
AcDbEntity
  8
Layer_1
 62
7
100
AcDbLine
 10
33.139210
 20
16.273684
 30
0.0
 11
34.049366
 21
16.726804
 31
0.0
  0
LINE
  5
154
100
AcDbEntity
  8
Layer_1
 62
7
100
AcDbLine
 10
34.049366
 20
16.726804
 30
0.0
 11
34.385304
 21
17.961124
 31
0.0
  0
LINE
  5
155
100
AcDbEntity
  8
Layer_1
 62
7
100
AcDbLine
 10
34.385304
 20
17.961124
 30
0.0
 11
34.721242
 21
19.195524
 31
0.0
  0
LINE
  5
156
100
AcDbEntity
  8
Layer_1
 62
7
100
AcDbLine
 10
34.721242
 20
19.195524
 30
0.0
 11
35.057178
 21
20.429844
 31
0.0
  0
LINE
  5
157
100
AcDbEntity
  8
Layer_1
 62
7
100
AcDbLine
 10
35.057178
 20
20.429844
 30
0.0
 11
35.393116
 21
21.664244
 31
0.0
  0
LINE
  5
158
100
AcDbEntity
  8
Layer_1
 62
7
100
AcDbLine
 10
35.393116
 20
21.664244
 30
0.0
 11
35.057178
 21
22.894724
 31
0.0
  0
LINE
  5
159
100
AcDbEntity
  8
Layer_1
 62
7
100
AcDbLine
 10
35.057178
 20
22.894724
 30
0.0
 11
34.721242
 21
24.125204
 31
0.0
  0
LINE
  5
15a
100
AcDbEntity
  8
Layer_1
 62
7
100
AcDbLine
 10
34.721242
 20
24.125204
 30
0.0
 11
34.385304
 21
25.355684
 31
0.0
  0
LINE
  5
15b
100
AcDbEntity
  8
Layer_1
 62
7
100
AcDbLine
 10
34.385304
 20
25.355684
 30
0.0
 11
34.049366
 21
26.586164
 31
0.0
  0
LINE
  5
15c
100
AcDbEntity
  8
Layer_1
 62
7
100
AcDbLine
 10
34.049366
 20
26.586164
 30
0.0
 11
33.139210
 21
27.043204
 31
0.0
  0
LINE
  5
15d
100
AcDbEntity
  8
Layer_1
 62
7
100
AcDbLine
 10
33.139210
 20
27.043204
 30
0.0
 11
32.229054
 21
27.500244
 31
0.0
  0
LINE
  5
15e
100
AcDbEntity
  8
Layer_1
 62
7
100
AcDbLine
 10
32.229054
 20
27.500244
 30
0.0
 11
31.318898
 21
27.957204
 31
0.0
  0
LINE
  5
15f
100
AcDbEntity
  8
Layer_1
 62
7
100
AcDbLine
 10
31.318898
 20
27.957204
 30
0.0
 11
30.408742
 21
28.414244
 31
0.0
  0
LINE
  5
160
100
AcDbEntity
  8
Layer_1
 62
7
100
AcDbLine
 10
30.408742
 20
30.851764
 30
0.0
 11
31.881398
 21
30.242404
 31
0.0
  0
LINE
  5
161
100
AcDbEntity
  8
Layer_1
 62
7
100
AcDbLine
 10
31.881398
 20
30.242404
 30
0.0
 11
33.354054
 21
29.633044
 31
0.0
  0
LINE
  5
162
100
AcDbEntity
  8
Layer_1
 62
7
100
AcDbLine
 10
33.354054
 20
29.633044
 30
0.0
 11
34.826710
 21
29.023604
 31
0.0
  0
LINE
  5
163
100
AcDbEntity
  8
Layer_1
 62
7
100
AcDbLine
 10
34.826710
 20
29.023604
 30
0.0
 11
36.299366
 21
28.414244
 31
0.0
  0
LINE
  5
164
100
AcDbEntity
  8
Layer_1
 62
7
100
AcDbLine
 10
36.299366
 20
28.414244
 30
0.0
 11
36.834522
 21
26.726724
 31
0.0
  0
LINE
  5
165
100
AcDbEntity
  8
Layer_1
 62
7
100
AcDbLine
 10
36.834522
 20
26.726724
 30
0.0
 11
37.369679
 21
25.039284
 31
0.0
  0
LINE
  5
166
100
AcDbEntity
  8
Layer_1
 62
7
100
AcDbLine
 10
37.369679
 20
25.039284
 30
0.0
 11
37.904835
 21
23.351764
 31
0.0
  0
LINE
  5
167
100
AcDbEntity
  8
Layer_1
 62
7
100
AcDbLine
 10
37.904835
 20
23.351764
 30
0.0
 11
38.439991
 21
21.664244
 31
0.0
  0
LINE
  5
168
100
AcDbEntity
  8
Layer_1
 62
7
100
AcDbLine
 10
38.439991
 20
21.664244
 30
0.0
 11
37.904835
 21
19.976724
 31
0.0
  0
LINE
  5
169
100
AcDbEntity
  8
Layer_1
 62
7
100
AcDbLine
 10
37.904835
 20
19.976724
 30
0.0
 11
37.369679
 21
18.289204
 31
0.0
  0
LINE
  5
16a
100
AcDbEntity
  8
Layer_1
 62
7
100
AcDbLine
 10
37.369679
 20
18.289204
 30
0.0
 11
36.834522
 21
16.601764
 31
0.0
  0
LINE
  5
16b
100
AcDbEntity
  8
Layer_1
 62
7
100
AcDbLine
 10
36.834522
 20
16.601764
 30
0.0
 11
36.299366
 21
14.914244
 31
0.0
  0
LINE
  5
16c
100
AcDbEntity
  8
Layer_1
 62
7
100
AcDbLine
 10
36.299366
 20
14.914244
 30
0.0
 11
34.826710
 21
14.304884
 31
0.0
  0
LINE
  5
16d
100
AcDbEntity
  8
Layer_1
 62
7
100
AcDbLine
 10
34.826710
 20
14.304884
 30
0.0
 11
33.354054
 21
13.695524
 31
0.0
  0
LINE
  5
16e
100
AcDbEntity
  8
Layer_1
 62
7
100
AcDbLine
 10
33.354054
 20
13.695524
 30
0.0
 11
31.881398
 21
13.086164
 31
0.0
  0
LINE
  5
16f
100
AcDbEntity
  8
Layer_1
 62
7
100
AcDbLine
 10
31.881398
 20
13.086164
 30
0.0
 11
30.408742
 21
12.476804
 31
0.0
  0
LINE
  5
170
100
AcDbEntity
  8
Layer_1
 62
7
100
AcDbLine
 10
30.408742
 20
12.476804
 30
0.0
 11
28.932179
 21
13.086164
 31
0.0
  0
LINE
  5
171
100
AcDbEntity
  8
Layer_1
 62
7
100
AcDbLine
 10
28.932179
 20
13.086164
 30
0.0
 11
27.455617
 21
13.695524
 31
0.0
  0
LINE
  5
172
100
AcDbEntity
  8
Layer_1
 62
7
100
AcDbLine
 10
27.455617
 20
13.695524
 30
0.0
 11
25.979054
 21
14.304884
 31
0.0
  0
LINE
  5
173
100
AcDbEntity
  8
Layer_1
 62
7
100
AcDbLine
 10
25.979054
 20
14.304884
 30
0.0
 11
24.502491
 21
14.914244
 31
0.0
  0
LINE
  5
174
100
AcDbEntity
  8
Layer_1
 62
7
100
AcDbLine
 10
24.502491
 20
14.914244
 30
0.0
 11
23.971242
 21
16.601764
 31
0.0
  0
LINE
  5
175
100
AcDbEntity
  8
Layer_1
 62
7
100
AcDbLine
 10
23.971242
 20
16.601764
 30
0.0
 11
23.439991
 21
18.289204
 31
0.0
  0
LINE
  5
176
100
AcDbEntity
  8
Layer_1
 62
7
100
AcDbLine
 10
23.439991
 20
18.289204
 30
0.0
 11
22.908742
 21
19.976724
 31
0.0
  0
LINE
  5
177
100
AcDbEntity
  8
Layer_1
 62
7
100
AcDbLine
 10
22.908742
 20
19.976724
 30
0.0
 11
22.377491
 21
21.664244
 31
0.0
  0
LINE
  5
178
100
AcDbEntity
  8
Layer_1
 62
7
100
AcDbLine
 10
22.377491
 20
21.664244
 30
0.0
 11
22.908742
 21
23.351764
 31
0.0
  0
LINE
  5
179
100
AcDbEntity
  8
Layer_1
 62
7
100
AcDbLine
 10
22.908742
 20
23.351764
 30
0.0
 11
23.439991
 21
25.039284
 31
0.0
  0
LINE
  5
17a
100
AcDbEntity
  8
Layer_1
 62
7
100
AcDbLine
 10
23.439991
 20
25.039284
 30
0.0
 11
23.971242
 21
26.726724
 31
0.0
  0
LINE
  5
17b
100
AcDbEntity
  8
Layer_1
 62
7
100
AcDbLine
 10
23.971242
 20
26.726724
 30
0.0
 11
24.502491
 21
28.414244
 31
0.0
  0
LINE
  5
17c
100
AcDbEntity
  8
Layer_1
 62
7
100
AcDbLine
 10
24.502491
 20
28.414244
 30
0.0
 11
25.979054
 21
29.023604
 31
0.0
  0
LINE
  5
17d
100
AcDbEntity
  8
Layer_1
 62
7
100
AcDbLine
 10
25.979054
 20
29.023604
 30
0.0
 11
27.455617
 21
29.633044
 31
0.0
  0
LINE
  5
17e
100
AcDbEntity
  8
Layer_1
 62
7
100
AcDbLine
 10
27.455617
 20
29.633044
 30
0.0
 11
28.932179
 21
30.242404
 31
0.0
  0
LINE
  5
17f
100
AcDbEntity
  8
Layer_1
 62
7
100
AcDbLine
 10
28.932179
 20
30.242404
 30
0.0
 11
30.408742
 21
30.851764
 31
0.0
  0
LINE
  5
180
100
AcDbEntity
  8
Layer_1
 62
7
100
AcDbLine
 10
49.971242
 20
28.414244
 30
0.0
 11
49.057179
 21
27.961124
 31
0.0
  0
LINE
  5
181
100
AcDbEntity
  8
Layer_1
 62
7
100
AcDbLine
 10
49.057179
 20
27.961124
 30
0.0
 11
48.143117
 21
27.508004
 31
0.0
  0
LINE
  5
182
100
AcDbEntity
  8
Layer_1
 62
7
100
AcDbLine
 10
48.143117
 20
27.508004
 30
0.0
 11
47.229054
 21
27.054884
 31
0.0
  0
LINE
  5
183
100
AcDbEntity
  8
Layer_1
 62
7
100
AcDbLine
 10
47.229054
 20
27.054884
 30
0.0
 11
46.314991
 21
26.601764
 31
0.0
  0
LINE
  5
184
100
AcDbEntity
  8
Layer_1
 62
7
100
AcDbLine
 10
46.314991
 20
26.601764
 30
0.0
 11
45.979054
 21
25.367364
 31
0.0
  0
LINE
  5
185
100
AcDbEntity
  8
Layer_1
 62
7
100
AcDbLine
 10
45.979054
 20
25.367364
 30
0.0
 11
45.643117
 21
24.133044
 31
0.0
  0
LINE
  5
186
100
AcDbEntity
  8
Layer_1
 62
7
100
AcDbLine
 10
45.643117
 20
24.133044
 30
0.0
 11
45.307179
 21
22.898644
 31
0.0
  0
LINE
  5
187
100
AcDbEntity
  8
Layer_1
 62
7
100
AcDbLine
 10
45.307179
 20
22.898644
 30
0.0
 11
44.971242
 21
21.664244
 31
0.0
  0
LINE
  5
188
100
AcDbEntity
  8
Layer_1
 62
7
100
AcDbLine
 10
44.971242
 20
21.664244
 30
0.0
 11
45.303273
 21
20.426004
 31
0.0
  0
LINE
  5
189
100
AcDbEntity
  8
Layer_1
 62
7
100
AcDbLine
 10
45.303273
 20
20.426004
 30
0.0
 11
45.635304
 21
19.187684
 31
0.0
  0
LINE
  5
18a
100
AcDbEntity
  8
Layer_1
 62
7
100
AcDbLine
 10
45.635304
 20
19.187684
 30
0.0
 11
45.967335
 21
17.949364
 31
0.0
  0
LINE
  5
18b
100
AcDbEntity
  8
Layer_1
 62
7
100
AcDbLine
 10
45.967335
 20
17.949364
 30
0.0
 11
46.299366
 21
16.711124
 31
0.0
  0
LINE
  5
18c
100
AcDbEntity
  8
Layer_1
 62
7
100
AcDbLine
 10
46.299366
 20
16.711124
 30
0.0
 11
47.217335
 21
16.261924
 31
0.0
  0
LINE
  5
18d
100
AcDbEntity
  8
Layer_1
 62
7
100
AcDbLine
 10
47.217335
 20
16.261924
 30
0.0
 11
48.135304
 21
15.812724
 31
0.0
  0
LINE
  5
18e
100
AcDbEntity
  8
Layer_1
 62
7
100
AcDbLine
 10
48.135304
 20
15.812724
 30
0.0
 11
49.053273
 21
15.363444
 31
0.0
  0
LINE
  5
18f
100
AcDbEntity
  8
Layer_1
 62
7
100
AcDbLine
 10
49.053273
 20
15.363444
 30
0.0
 11
49.971242
 21
14.914244
 31
0.0
  0
LINE
  5
190
100
AcDbEntity
  8
Layer_1
 62
7
100
AcDbLine
 10
49.971242
 20
14.914244
 30
0.0
 11
50.881398
 21
15.367364
 31
0.0
  0
LINE
  5
191
100
AcDbEntity
  8
Layer_1
 62
7
100
AcDbLine
 10
50.881398
 20
15.367364
 30
0.0
 11
51.791554
 21
15.820484
 31
0.0
  0
LINE
  5
192
100
AcDbEntity
  8
Layer_1
 62
7
100
AcDbLine
 10
51.791554
 20
15.820484
 30
0.0
 11
52.701710
 21
16.273684
 31
0.0
  0
LINE
  5
193
100
AcDbEntity
  8
Layer_1
 62
7
100
AcDbLine
 10
52.701710
 20
16.273684
 30
0.0
 11
53.611866
 21
16.726804
 31
0.0
  0
LINE
  5
194
100
AcDbEntity
  8
Layer_1
 62
7
100
AcDbLine
 10
53.611866
 20
16.726804
 30
0.0
 11
53.947804
 21
17.961124
 31
0.0
  0
LINE
  5
195
100
AcDbEntity
  8
Layer_1
 62
7
100
AcDbLine
 10
53.947804
 20
17.961124
 30
0.0
 11
54.283741
 21
19.195524
 31
0.0
  0
LINE
  5
196
100
AcDbEntity
  8
Layer_1
 62
7
100
AcDbLine
 10
54.283741
 20
19.195524
 30
0.0
 11
54.619678
 21
20.429844
 31
0.0
  0
LINE
  5
197
100
AcDbEntity
  8
Layer_1
 62
7
100
AcDbLine
 10
54.619678
 20
20.429844
 30
0.0
 11
54.955616
 21
21.664244
 31
0.0
  0
LINE
  5
198
100
AcDbEntity
  8
Layer_1
 62
7
100
AcDbLine
 10
54.955616
 20
21.664244
 30
0.0
 11
54.619678
 21
22.894724
 31
0.0
  0
LINE
  5
199
100
AcDbEntity
  8
Layer_1
 62
7
100
AcDbLine
 10
54.619678
 20
22.894724
 30
0.0
 11
54.283741
 21
24.125204
 31
0.0
  0
LINE
  5
19a
100
AcDbEntity
  8
Layer_1
 62
7
100
AcDbLine
 10
54.283741
 20
24.125204
 30
0.0
 11
53.947804
 21
25.355684
 31
0.0
  0
LINE
  5
19b
100
AcDbEntity
  8
Layer_1
 62
7
100
AcDbLine
 10
53.947804
 20
25.355684
 30
0.0
 11
53.611866
 21
26.586164
 31
0.0
  0
LINE
  5
19c
100
AcDbEntity
  8
Layer_1
 62
7
100
AcDbLine
 10
53.611866
 20
26.586164
 30
0.0
 11
52.701710
 21
27.043204
 31
0.0
  0
LINE
  5
19d
100
AcDbEntity
  8
Layer_1
 62
7
100
AcDbLine
 10
52.701710
 20
27.043204
 30
0.0
 11
51.791554
 21
27.500244
 31
0.0
  0
LINE
  5
19e
100
AcDbEntity
  8
Layer_1
 62
7
100
AcDbLine
 10
51.791554
 20
27.500244
 30
0.0
 11
50.881398
 21
27.957204
 31
0.0
  0
LINE
  5
19f
100
AcDbEntity
  8
Layer_1
 62
7
100
AcDbLine
 10
50.881398
 20
27.957204
 30
0.0
 11
49.971242
 21
28.414244
 31
0.0
  0
LINE
  5
1a0
100
AcDbEntity
  8
Layer_1
 62
7
100
AcDbLine
 10
49.971242
 20
30.851764
 30
0.0
 11
51.443898
 21
30.242404
 31
0.0
  0
LINE
  5
1a1
100
AcDbEntity
  8
Layer_1
 62
7
100
AcDbLine
 10
51.443898
 20
30.242404
 30
0.0
 11
52.916554
 21
29.633044
 31
0.0
  0
LINE
  5
1a2
100
AcDbEntity
  8
Layer_1
 62
7
100
AcDbLine
 10
52.916554
 20
29.633044
 30
0.0
 11
54.389210
 21
29.023604
 31
0.0
  0
LINE
  5
1a3
100
AcDbEntity
  8
Layer_1
 62
7
100
AcDbLine
 10
54.389210
 20
29.023604
 30
0.0
 11
55.861866
 21
28.414244
 31
0.0
  0
LINE
  5
1a4
100
AcDbEntity
  8
Layer_1
 62
7
100
AcDbLine
 10
55.861866
 20
28.414244
 30
0.0
 11
56.397022
 21
26.726724
 31
0.0
  0
LINE
  5
1a5
100
AcDbEntity
  8
Layer_1
 62
7
100
AcDbLine
 10
56.397022
 20
26.726724
 30
0.0
 11
56.932178
 21
25.039284
 31
0.0
  0
LINE
  5
1a6
100
AcDbEntity
  8
Layer_1
 62
7
100
AcDbLine
 10
56.932178
 20
25.039284
 30
0.0
 11
57.467335
 21
23.351764
 31
0.0
  0
LINE
  5
1a7
100
AcDbEntity
  8
Layer_1
 62
7
100
AcDbLine
 10
57.467335
 20
23.351764
 30
0.0
 11
58.002491
 21
21.664244
 31
0.0
  0
LINE
  5
1a8
100
AcDbEntity
  8
Layer_1
 62
7
100
AcDbLine
 10
58.002491
 20
21.664244
 30
0.0
 11
57.467335
 21
19.976724
 31
0.0
  0
LINE
  5
1a9
100
AcDbEntity
  8
Layer_1
 62
7
100
AcDbLine
 10
57.467335
 20
19.976724
 30
0.0
 11
56.932178
 21
18.289204
 31
0.0
  0
LINE
  5
1aa
100
AcDbEntity
  8
Layer_1
 62
7
100
AcDbLine
 10
56.932178
 20
18.289204
 30
0.0
 11
56.397022
 21
16.601764
 31
0.0
  0
LINE
  5
1ab
100
AcDbEntity
  8
Layer_1
 62
7
100
AcDbLine
 10
56.397022
 20
16.601764
 30
0.0
 11
55.861866
 21
14.914244
 31
0.0
  0
LINE
  5
1ac
100
AcDbEntity
  8
Layer_1
 62
7
100
AcDbLine
 10
55.861866
 20
14.914244
 30
0.0
 11
54.389210
 21
14.304884
 31
0.0
  0
LINE
  5
1ad
100
AcDbEntity
  8
Layer_1
 62
7
100
AcDbLine
 10
54.389210
 20
14.304884
 30
0.0
 11
52.916554
 21
13.695524
 31
0.0
  0
LINE
  5
1ae
100
AcDbEntity
  8
Layer_1
 62
7
100
AcDbLine
 10
52.916554
 20
13.695524
 30
0.0
 11
51.443898
 21
13.086164
 31
0.0
  0
LINE
  5
1af
100
AcDbEntity
  8
Layer_1
 62
7
100
AcDbLine
 10
51.443898
 20
13.086164
 30
0.0
 11
49.971242
 21
12.476804
 31
0.0
  0
LINE
  5
1b0
100
AcDbEntity
  8
Layer_1
 62
7
100
AcDbLine
 10
49.971242
 20
12.476804
 30
0.0
 11
48.494679
 21
13.086164
 31
0.0
  0
LINE
  5
1b1
100
AcDbEntity
  8
Layer_1
 62
7
100
AcDbLine
 10
48.494679
 20
13.086164
 30
0.0
 11
47.018116
 21
13.695524
 31
0.0
  0
LINE
  5
1b2
100
AcDbEntity
  8
Layer_1
 62
7
100
AcDbLine
 10
47.018116
 20
13.695524
 30
0.0
 11
45.541554
 21
14.304884
 31
0.0
  0
LINE
  5
1b3
100
AcDbEntity
  8
Layer_1
 62
7
100
AcDbLine
 10
45.541554
 20
14.304884
 30
0.0
 11
44.064991
 21
14.914244
 31
0.0
  0
LINE
  5
1b4
100
AcDbEntity
  8
Layer_1
 62
7
100
AcDbLine
 10
44.064991
 20
14.914244
 30
0.0
 11
43.533741
 21
16.601764
 31
0.0
  0
LINE
  5
1b5
100
AcDbEntity
  8
Layer_1
 62
7
100
AcDbLine
 10
43.533741
 20
16.601764
 30
0.0
 11
43.002491
 21
18.289204
 31
0.0
  0
LINE
  5
1b6
100
AcDbEntity
  8
Layer_1
 62
7
100
AcDbLine
 10
43.002491
 20
18.289204
 30
0.0
 11
42.471241
 21
19.976724
 31
0.0
  0
LINE
  5
1b7
100
AcDbEntity
  8
Layer_1
 62
7
100
AcDbLine
 10
42.471241
 20
19.976724
 30
0.0
 11
41.939991
 21
21.664244
 31
0.0
  0
LINE
  5
1b8
100
AcDbEntity
  8
Layer_1
 62
7
100
AcDbLine
 10
41.939991
 20
21.664244
 30
0.0
 11
42.471241
 21
23.351764
 31
0.0
  0
LINE
  5
1b9
100
AcDbEntity
  8
Layer_1
 62
7
100
AcDbLine
 10
42.471241
 20
23.351764
 30
0.0
 11
43.002491
 21
25.039284
 31
0.0
  0
LINE
  5
1ba
100
AcDbEntity
  8
Layer_1
 62
7
100
AcDbLine
 10
43.002491
 20
25.039284
 30
0.0
 11
43.533741
 21
26.726724
 31
0.0
  0
LINE
  5
1bb
100
AcDbEntity
  8
Layer_1
 62
7
100
AcDbLine
 10
43.533741
 20
26.726724
 30
0.0
 11
44.064991
 21
28.414244
 31
0.0
  0
LINE
  5
1bc
100
AcDbEntity
  8
Layer_1
 62
7
100
AcDbLine
 10
44.064991
 20
28.414244
 30
0.0
 11
45.541554
 21
29.023604
 31
0.0
  0
LINE
  5
1bd
100
AcDbEntity
  8
Layer_1
 62
7
100
AcDbLine
 10
45.541554
 20
29.023604
 30
0.0
 11
47.018116
 21
29.633044
 31
0.0
  0
LINE
  5
1be
100
AcDbEntity
  8
Layer_1
 62
7
100
AcDbLine
 10
47.018116
 20
29.633044
 30
0.0
 11
48.494679
 21
30.242404
 31
0.0
  0
LINE
  5
1bf
100
AcDbEntity
  8
Layer_1
 62
7
100
AcDbLine
 10
48.494679
 20
30.242404
 30
0.0
 11
49.971242
 21
30.851764
 31
0.0
  0
LINE
  5
1c0
100
AcDbEntity
  8
Layer_1
 62
7
100
AcDbLine
 10
65.533742
 20
15.554884
 30
0.0
 11
65.533742
 21
13.234564
 31
0.0
  0
LINE
  5
1c1
100
AcDbEntity
  8
Layer_1
 62
7
100
AcDbLine
 10
65.533742
 20
13.234564
 30
0.0
 11
65.533742
 21
10.914324
 31
0.0
  0
LINE
  5
1c2
100
AcDbEntity
  8
Layer_1
 62
7
100
AcDbLine
 10
65.533742
 20
10.914324
 30
0.0
 11
65.533742
 21
8.594004
 31
0.0
  0
LINE
  5
1c3
100
AcDbEntity
  8
Layer_1
 62
7
100
AcDbLine
 10
65.533742
 20
8.594004
 30
0.0
 11
65.533742
 21
6.273684
 31
0.0
  0
LINE
  5
1c4
100
AcDbEntity
  8
Layer_1
 62
7
100
AcDbLine
 10
65.533742
 20
6.273684
 30
0.0
 11
64.811086
 21
6.273684
 31
0.0
  0
LINE
  5
1c5
100
AcDbEntity
  8
Layer_1
 62
7
100
AcDbLine
 10
64.811086
 20
6.273684
 30
0.0
 11
64.088429
 21
6.273684
 31
0.0
  0
LINE
  5
1c6
100
AcDbEntity
  8
Layer_1
 62
7
100
AcDbLine
 10
64.088429
 20
6.273684
 30
0.0
 11
63.365772
 21
6.273684
 31
0.0
  0
LINE
  5
1c7
100
AcDbEntity
  8
Layer_1
 62
7
100
AcDbLine
 10
63.365772
 20
6.273684
 30
0.0
 11
62.643116
 21
6.273684
 31
0.0
  0
LINE
  5
1c8
100
AcDbEntity
  8
Layer_1
 62
7
100
AcDbLine
 10
62.643116
 20
6.273684
 30
0.0
 11
62.643116
 21
12.312724
 31
0.0
  0
LINE
  5
1c9
100
AcDbEntity
  8
Layer_1
 62
7
100
AcDbLine
 10
62.643116
 20
12.312724
 30
0.0
 11
62.643116
 21
18.351764
 31
0.0
  0
LINE
  5
1ca
100
AcDbEntity
  8
Layer_1
 62
7
100
AcDbLine
 10
62.643116
 20
18.351764
 30
0.0
 11
62.643116
 21
24.390884
 31
0.0
  0
LINE
  5
1cb
100
AcDbEntity
  8
Layer_1
 62
7
100
AcDbLine
 10
62.643116
 20
24.390884
 30
0.0
 11
62.643116
 21
30.429924
 31
0.0
  0
LINE
  5
1cc
100
AcDbEntity
  8
Layer_1
 62
7
100
AcDbLine
 10
62.643116
 20
30.429924
 30
0.0
 11
63.365772
 21
30.429924
 31
0.0
  0
LINE
  5
1cd
100
AcDbEntity
  8
Layer_1
 62
7
100
AcDbLine
 10
63.365772
 20
30.429924
 30
0.0
 11
64.088429
 21
30.429924
 31
0.0
  0
LINE
  5
1ce
100
AcDbEntity
  8
Layer_1
 62
7
100
AcDbLine
 10
64.088429
 20
30.429924
 30
0.0
 11
64.811086
 21
30.429924
 31
0.0
  0
LINE
  5
1cf
100
AcDbEntity
  8
Layer_1
 62
7
100
AcDbLine
 10
64.811086
 20
30.429924
 30
0.0
 11
65.533742
 21
30.429924
 31
0.0
  0
LINE
  5
1d0
100
AcDbEntity
  8
Layer_1
 62
7
100
AcDbLine
 10
65.533742
 20
30.429924
 30
0.0
 11
65.533742
 21
29.765844
 31
0.0
  0
LINE
  5
1d1
100
AcDbEntity
  8
Layer_1
 62
7
100
AcDbLine
 10
65.533742
 20
29.765844
 30
0.0
 11
65.533742
 21
29.101764
 31
0.0
  0
LINE
  5
1d2
100
AcDbEntity
  8
Layer_1
 62
7
100
AcDbLine
 10
65.533742
 20
29.101764
 30
0.0
 11
65.533742
 21
28.437764
 31
0.0
  0
LINE
  5
1d3
100
AcDbEntity
  8
Layer_1
 62
7
100
AcDbLine
 10
65.533742
 20
28.437764
 30
0.0
 11
65.533742
 21
27.773684
 31
0.0
  0
LINE
  5
1d4
100
AcDbEntity
  8
Layer_1
 62
7
100
AcDbLine
 10
65.533742
 20
27.773684
 30
0.0
 11
66.104054
 21
28.351764
 31
0.0
  0
LINE
  5
1d5
100
AcDbEntity
  8
Layer_1
 62
7
100
AcDbLine
 10
66.104054
 20
28.351764
 30
0.0
 11
66.674366
 21
28.929924
 31
0.0
  0
LINE
  5
1d6
100
AcDbEntity
  8
Layer_1
 62
7
100
AcDbLine
 10
66.674366
 20
28.929924
 30
0.0
 11
67.244678
 21
29.508084
 31
0.0
  0
LINE
  5
1d7
100
AcDbEntity
  8
Layer_1
 62
7
100
AcDbLine
 10
67.244678
 20
29.508084
 30
0.0
 11
67.814991
 21
30.086164
 31
0.0
  0
LINE
  5
1d8
100
AcDbEntity
  8
Layer_1
 62
7
100
AcDbLine
 10
67.814991
 20
30.086164
 30
0.0
 11
68.643116
 21
30.277524
 31
0.0
  0
LINE
  5
1d9
100
AcDbEntity
  8
Layer_1
 62
7
100
AcDbLine
 10
68.643116
 20
30.277524
 30
0.0
 11
69.471241
 21
30.468964
 31
0.0
  0
LINE
  5
1da
100
AcDbEntity
  8
Layer_1
 62
7
100
AcDbLine
 10
69.471241
 20
30.468964
 30
0.0
 11
70.299366
 21
30.660404
 31
0.0
  0
LINE
  5
1db
100
AcDbEntity
  8
Layer_1
 62
7
100
AcDbLine
 10
70.299366
 20
30.660404
 30
0.0
 11
71.127491
 21
30.851764
 31
0.0
  0
LINE
  5
1dc
100
AcDbEntity
  8
Layer_1
 62
7
100
AcDbLine
 10
71.127491
 20
30.851764
 30
0.0
 11
72.420460
 21
30.218964
 31
0.0
  0
LINE
  5
1dd
100
AcDbEntity
  8
Layer_1
 62
7
100
AcDbLine
 10
72.420460
 20
30.218964
 30
0.0
 11
73.713429
 21
29.586164
 31
0.0
  0
LINE
  5
1de
100
AcDbEntity
  8
Layer_1
 62
7
100
AcDbLine
 10
73.713429
 20
29.586164
 30
0.0
 11
75.006398
 21
28.953364
 31
0.0
  0
LINE
  5
1df
100
AcDbEntity
  8
Layer_1
 62
7
100
AcDbLine
 10
75.006398
 20
28.953364
 30
0.0
 11
76.299366
 21
28.320564
 31
0.0
  0
LINE
  5
1e0
100
AcDbEntity
  8
Layer_1
 62
7
100
AcDbLine
 10
76.299366
 20
28.320564
 30
0.0
 11
76.799366
 21
26.656484
 31
0.0
  0
LINE
  5
1e1
100
AcDbEntity
  8
Layer_1
 62
7
100
AcDbLine
 10
76.799366
 20
26.656484
 30
0.0
 11
77.299366
 21
24.992404
 31
0.0
  0
LINE
  5
1e2
100
AcDbEntity
  8
Layer_1
 62
7
100
AcDbLine
 10
77.299366
 20
24.992404
 30
0.0
 11
77.799366
 21
23.328324
 31
0.0
  0
LINE
  5
1e3
100
AcDbEntity
  8
Layer_1
 62
7
100
AcDbLine
 10
77.799366
 20
23.328324
 30
0.0
 11
78.299366
 21
21.664244
 31
0.0
  0
LINE
  5
1e4
100
AcDbEntity
  8
Layer_1
 62
7
100
AcDbLine
 10
78.299366
 20
21.664244
 30
0.0
 11
77.799366
 21
20.000164
 31
0.0
  0
LINE
  5
1e5
100
AcDbEntity
  8
Layer_1
 62
7
100
AcDbLine
 10
77.799366
 20
20.000164
 30
0.0
 11
77.299366
 21
18.336084
 31
0.0
  0
LINE
  5
1e6
100
AcDbEntity
  8
Layer_1
 62
7
100
AcDbLine
 10
77.299366
 20
18.336084
 30
0.0
 11
76.799366
 21
16.672084
 31
0.0
  0
LINE
  5
1e7
100
AcDbEntity
  8
Layer_1
 62
7
100
AcDbLine
 10
76.799366
 20
16.672084
 30
0.0
 11
76.299366
 21
15.008004
 31
0.0
  0
LINE
  5
1e8
100
AcDbEntity
  8
Layer_1
 62
7
100
AcDbLine
 10
76.299366
 20
15.008004
 30
0.0
 11
75.006398
 21
14.375204
 31
0.0
  0
LINE
  5
1e9
100
AcDbEntity
  8
Layer_1
 62
7
100
AcDbLine
 10
75.006398
 20
14.375204
 30
0.0
 11
73.713429
 21
13.742404
 31
0.0
  0
LINE
  5
1ea
100
AcDbEntity
  8
Layer_1
 62
7
100
AcDbLine
 10
73.713429
 20
13.742404
 30
0.0
 11
72.420460
 21
13.109604
 31
0.0
  0
LINE
  5
1eb
100
AcDbEntity
  8
Layer_1
 62
7
100
AcDbLine
 10
72.420460
 20
13.109604
 30
0.0
 11
71.127491
 21
12.476804
 31
0.0
  0
LINE
  5
1ec
100
AcDbEntity
  8
Layer_1
 62
7
100
AcDbLine
 10
71.127491
 20
12.476804
 30
0.0
 11
70.299366
 21
12.664324
 31
0.0
  0
LINE
  5
1ed
100
AcDbEntity
  8
Layer_1
 62
7
100
AcDbLine
 10
70.299366
 20
12.664324
 30
0.0
 11
69.471241
 21
12.851764
 31
0.0
  0
LINE
  5
1ee
100
AcDbEntity
  8
Layer_1
 62
7
100
AcDbLine
 10
69.471241
 20
12.851764
 30
0.0
 11
68.643116
 21
13.039284
 31
0.0
  0
LINE
  5
1ef
100
AcDbEntity
  8
Layer_1
 62
7
100
AcDbLine
 10
68.643116
 20
13.039284
 30
0.0
 11
67.814991
 21
13.226804
 31
0.0
  0
LINE
  5
1f0
100
AcDbEntity
  8
Layer_1
 62
7
100
AcDbLine
 10
67.814991
 20
13.226804
 30
0.0
 11
67.244678
 21
13.808804
 31
0.0
  0
LINE
  5
1f1
100
AcDbEntity
  8
Layer_1
 62
7
100
AcDbLine
 10
67.244678
 20
13.808804
 30
0.0
 11
66.674366
 21
14.390804
 31
0.0
  0
LINE
  5
1f2
100
AcDbEntity
  8
Layer_1
 62
7
100
AcDbLine
 10
66.674366
 20
14.390804
 30
0.0
 11
66.104054
 21
14.972884
 31
0.0
  0
LINE
  5
1f3
100
AcDbEntity
  8
Layer_1
 62
7
100
AcDbLine
 10
66.104054
 20
14.972884
 30
0.0
 11
65.533742
 21
15.554884
 31
0.0
  0
LINE
  5
1f4
100
AcDbEntity
  8
Layer_1
 62
7
100
AcDbLine
 10
75.314991
 20
21.664244
 30
0.0
 11
74.986866
 21
22.906484
 31
0.0
  0
LINE
  5
1f5
100
AcDbEntity
  8
Layer_1
 62
7
100
AcDbLine
 10
74.986866
 20
22.906484
 30
0.0
 11
74.658741
 21
24.148644
 31
0.0
  0
LINE
  5
1f6
100
AcDbEntity
  8
Layer_1
 62
7
100
AcDbLine
 10
74.658741
 20
24.148644
 30
0.0
 11
74.330616
 21
25.390884
 31
0.0
  0
LINE
  5
1f7
100
AcDbEntity
  8
Layer_1
 62
7
100
AcDbLine
 10
74.330616
 20
25.390884
 30
0.0
 11
74.002491
 21
26.633044
 31
0.0
  0
LINE
  5
1f8
100
AcDbEntity
  8
Layer_1
 62
7
100
AcDbLine
 10
74.002491
 20
26.633044
 30
0.0
 11
73.107960
 21
27.086164
 31
0.0
  0
LINE
  5
1f9
100
AcDbEntity
  8
Layer_1
 62
7
100
AcDbLine
 10
73.107960
 20
27.086164
 30
0.0
 11
72.213429
 21
27.539284
 31
0.0
  0
LINE
  5
1fa
100
AcDbEntity
  8
Layer_1
 62
7
100
AcDbLine
 10
72.213429
 20
27.539284
 30
0.0
 11
71.318898
 21
27.992404
 31
0.0
  0
LINE
  5
1fb
100
AcDbEntity
  8
Layer_1
 62
7
100
AcDbLine
 10
71.318898
 20
27.992404
 30
0.0
 11
70.424366
 21
28.445524
 31
0.0
  0
LINE
  5
1fc
100
AcDbEntity
  8
Layer_1
 62
7
100
AcDbLine
 10
70.424366
 20
28.445524
 30
0.0
 11
69.525929
 21
27.992404
 31
0.0
  0
LINE
  5
1fd
100
AcDbEntity
  8
Layer_1
 62
7
100
AcDbLine
 10
69.525929
 20
27.992404
 30
0.0
 11
68.627491
 21
27.539284
 31
0.0
  0
LINE
  5
1fe
100
AcDbEntity
  8
Layer_1
 62
7
100
AcDbLine
 10
68.627491
 20
27.539284
 30
0.0
 11
67.729054
 21
27.086164
 31
0.0
  0
LINE
  5
1ff
100
AcDbEntity
  8
Layer_1
 62
7
100
AcDbLine
 10
67.729054
 20
27.086164
 30
0.0
 11
66.830616
 21
26.633044
 31
0.0
  0
LINE
  5
200
100
AcDbEntity
  8
Layer_1
 62
7
100
AcDbLine
 10
66.830616
 20
26.633044
 30
0.0
 11
66.506398
 21
25.390884
 31
0.0
  0
LINE
  5
201
100
AcDbEntity
  8
Layer_1
 62
7
100
AcDbLine
 10
66.506398
 20
25.390884
 30
0.0
 11
66.182178
 21
24.148644
 31
0.0
  0
LINE
  5
202
100
AcDbEntity
  8
Layer_1
 62
7
100
AcDbLine
 10
66.182178
 20
24.148644
 30
0.0
 11
65.857960
 21
22.906484
 31
0.0
  0
LINE
  5
203
100
AcDbEntity
  8
Layer_1
 62
7
100
AcDbLine
 10
65.857960
 20
22.906484
 30
0.0
 11
65.533742
 21
21.664244
 31
0.0
  0
LINE
  5
204
100
AcDbEntity
  8
Layer_1
 62
7
100
AcDbLine
 10
65.533742
 20
21.664244
 30
0.0
 11
65.857960
 21
20.418164
 31
0.0
  0
LINE
  5
205
100
AcDbEntity
  8
Layer_1
 62
7
100
AcDbLine
 10
65.857960
 20
20.418164
 30
0.0
 11
66.182178
 21
19.172084
 31
0.0
  0
LINE
  5
206
100
AcDbEntity
  8
Layer_1
 62
7
100
AcDbLine
 10
66.182178
 20
19.172084
 30
0.0
 11
66.506398
 21
17.926004
 31
0.0
  0
LINE
  5
207
100
AcDbEntity
  8
Layer_1
 62
7
100
AcDbLine
 10
66.506398
 20
17.926004
 30
0.0
 11
66.830616
 21
16.679924
 31
0.0
  0
LINE
  5
208
100
AcDbEntity
  8
Layer_1
 62
7
100
AcDbLine
 10
66.830616
 20
16.679924
 30
0.0
 11
67.729054
 21
16.230724
 31
0.0
  0
LINE
  5
209
100
AcDbEntity
  8
Layer_1
 62
7
100
AcDbLine
 10
67.729054
 20
16.230724
 30
0.0
 11
68.627491
 21
15.781444
 31
0.0
  0
LINE
  5
20a
100
AcDbEntity
  8
Layer_1
 62
7
100
AcDbLine
 10
68.627491
 20
15.781444
 30
0.0
 11
69.525929
 21
15.332244
 31
0.0
  0
LINE
  5
20b
100
AcDbEntity
  8
Layer_1
 62
7
100
AcDbLine
 10
69.525929
 20
15.332244
 30
0.0
 11
70.424366
 21
14.883044
 31
0.0
  0
LINE
  5
20c
100
AcDbEntity
  8
Layer_1
 62
7
100
AcDbLine
 10
70.424366
 20
14.883044
 30
0.0
 11
71.318898
 21
15.332244
 31
0.0
  0
LINE
  5
20d
100
AcDbEntity
  8
Layer_1
 62
7
100
AcDbLine
 10
71.318898
 20
15.332244
 30
0.0
 11
72.213429
 21
15.781444
 31
0.0
  0
LINE
  5
20e
100
AcDbEntity
  8
Layer_1
 62
7
100
AcDbLine
 10
72.213429
 20
15.781444
 30
0.0
 11
73.107960
 21
16.230724
 31
0.0
  0
LINE
  5
20f
100
AcDbEntity
  8
Layer_1
 62
7
100
AcDbLine
 10
73.107960
 20
16.230724
 30
0.0
 11
74.002491
 21
16.679924
 31
0.0
  0
LINE
  5
210
100
AcDbEntity
  8
Layer_1
 62
7
100
AcDbLine
 10
74.002491
 20
16.679924
 30
0.0
 11
74.330616
 21
17.926004
 31
0.0
  0
LINE
  5
211
100
AcDbEntity
  8
Layer_1
 62
7
100
AcDbLine
 10
74.330616
 20
17.926004
 30
0.0
 11
74.658741
 21
19.172084
 31
0.0
  0
LINE
  5
212
100
AcDbEntity
  8
Layer_1
 62
7
100
AcDbLine
 10
74.658741
 20
19.172084
 30
0.0
 11
74.986866
 21
20.418164
 31
0.0
  0
LINE
  5
213
100
AcDbEntity
  8
Layer_1
 62
7
100
AcDbLine
 10
74.986866
 20
20.418164
 30
0.0
 11
75.314991
 21
21.664244
 31
0.0
  0
LINE
  5
214
100
AcDbEntity
  8
Layer_1
 62
7
100
AcDbLine
 10
93.377488
 20
36.258004
 30
0.0
 11
96.729056
 21
36.258004
 31
0.0
  0
LINE
  5
215
100
AcDbEntity
  8
Layer_1
 62
7
100
AcDbLine
 10
96.729056
 20
36.258004
 30
0.0
 11
100.080616
 21
36.258004
 31
0.0
  0
LINE
  5
216
100
AcDbEntity
  8
Layer_1
 62
7
100
AcDbLine
 10
100.080616
 20
36.258004
 30
0.0
 11
103.432184
 21
36.258004
 31
0.0
  0
LINE
  5
217
100
AcDbEntity
  8
Layer_1
 62
7
100
AcDbLine
 10
103.432184
 20
36.258004
 30
0.0
 11
106.783744
 21
36.258004
 31
0.0
  0
LINE
  5
218
100
AcDbEntity
  8
Layer_1
 62
7
100
AcDbLine
 10
106.783744
 20
36.258004
 30
0.0
 11
106.783744
 21
35.593924
 31
0.0
  0
LINE
  5
219
100
AcDbEntity
  8
Layer_1
 62
7
100
AcDbLine
 10
106.783744
 20
35.593924
 30
0.0
 11
106.783744
 21
34.929924
 31
0.0
  0
LINE
  5
21a
100
AcDbEntity
  8
Layer_1
 62
7
100
AcDbLine
 10
106.783744
 20
34.929924
 30
0.0
 11
106.783744
 21
34.265844
 31
0.0
  0
LINE
  5
21b
100
AcDbEntity
  8
Layer_1
 62
7
100
AcDbLine
 10
106.783744
 20
34.265844
 30
0.0
 11
106.783744
 21
33.601764
 31
0.0
  0
LINE
  5
21c
100
AcDbEntity
  8
Layer_1
 62
7
100
AcDbLine
 10
106.783744
 20
33.601764
 30
0.0
 11
104.221240
 21
33.601764
 31
0.0
  0
LINE
  5
21d
100
AcDbEntity
  8
Layer_1
 62
7
100
AcDbLine
 10
104.221240
 20
33.601764
 30
0.0
 11
101.658744
 21
33.601764
 31
0.0
  0
LINE
  5
21e
100
AcDbEntity
  8
Layer_1
 62
7
100
AcDbLine
 10
101.658744
 20
33.601764
 30
0.0
 11
99.096248
 21
33.601764
 31
0.0
  0
LINE
  5
21f
100
AcDbEntity
  8
Layer_1
 62
7
100
AcDbLine
 10
99.096248
 20
33.601764
 30
0.0
 11
96.533744
 21
33.601764
 31
0.0
  0
LINE
  5
220
100
AcDbEntity
  8
Layer_1
 62
7
100
AcDbLine
 10
96.533744
 20
33.601764
 30
0.0
 11
96.533744
 21
31.883044
 31
0.0
  0
LINE
  5
221
100
AcDbEntity
  8
Layer_1
 62
7
100
AcDbLine
 10
96.533744
 20
31.883044
 30
0.0
 11
96.533744
 21
30.164244
 31
0.0
  0
LINE
  5
222
100
AcDbEntity
  8
Layer_1
 62
7
100
AcDbLine
 10
96.533744
 20
30.164244
 30
0.0
 11
96.533744
 21
28.445524
 31
0.0
  0
LINE
  5
223
100
AcDbEntity
  8
Layer_1
 62
7
100
AcDbLine
 10
96.533744
 20
28.445524
 30
0.0
 11
96.533744
 21
26.726804
 31
0.0
  0
LINE
  5
224
100
AcDbEntity
  8
Layer_1
 62
7
100
AcDbLine
 10
96.533744
 20
26.726804
 30
0.0
 11
98.846248
 21
26.726804
 31
0.0
  0
LINE
  5
225
100
AcDbEntity
  8
Layer_1
 62
7
100
AcDbLine
 10
98.846248
 20
26.726804
 30
0.0
 11
101.158744
 21
26.726804
 31
0.0
  0
LINE
  5
226
100
AcDbEntity
  8
Layer_1
 62
7
100
AcDbLine
 10
101.158744
 20
26.726804
 30
0.0
 11
103.471240
 21
26.726804
 31
0.0
  0
LINE
  5
227
100
AcDbEntity
  8
Layer_1
 62
7
100
AcDbLine
 10
103.471240
 20
26.726804
 30
0.0
 11
105.783744
 21
26.726804
 31
0.0
  0
LINE
  5
228
100
AcDbEntity
  8
Layer_1
 62
7
100
AcDbLine
 10
105.783744
 20
26.726804
 30
0.0
 11
105.783744
 21
26.062724
 31
0.0
  0
LINE
  5
229
100
AcDbEntity
  8
Layer_1
 62
7
100
AcDbLine
 10
105.783744
 20
26.062724
 30
0.0
 11
105.783744
 21
25.398724
 31
0.0
  0
LINE
  5
22a
100
AcDbEntity
  8
Layer_1
 62
7
100
AcDbLine
 10
105.783744
 20
25.398724
 30
0.0
 11
105.783744
 21
24.734644
 31
0.0
  0
LINE
  5
22b
100
AcDbEntity
  8
Layer_1
 62
7
100
AcDbLine
 10
105.783744
 20
24.734644
 30
0.0
 11
105.783744
 21
24.070564
 31
0.0
  0
LINE
  5
22c
100
AcDbEntity
  8
Layer_1
 62
7
100
AcDbLine
 10
105.783744
 20
24.070564
 30
0.0
 11
103.471240
 21
24.070564
 31
0.0
  0
LINE
  5
22d
100
AcDbEntity
  8
Layer_1
 62
7
100
AcDbLine
 10
103.471240
 20
24.070564
 30
0.0
 11
101.158744
 21
24.070564
 31
0.0
  0
LINE
  5
22e
100
AcDbEntity
  8
Layer_1
 62
7
100
AcDbLine
 10
101.158744
 20
24.070564
 30
0.0
 11
98.846248
 21
24.070564
 31
0.0
  0
LINE
  5
22f
100
AcDbEntity
  8
Layer_1
 62
7
100
AcDbLine
 10
98.846248
 20
24.070564
 30
0.0
 11
96.533744
 21
24.070564
 31
0.0
  0
LINE
  5
230
100
AcDbEntity
  8
Layer_1
 62
7
100
AcDbLine
 10
96.533744
 20
24.070564
 30
0.0
 11
96.533744
 21
21.285364
 31
0.0
  0
LINE
  5
231
100
AcDbEntity
  8
Layer_1
 62
7
100
AcDbLine
 10
96.533744
 20
21.285364
 30
0.0
 11
96.533744
 21
18.500244
 31
0.0
  0
LINE
  5
232
100
AcDbEntity
  8
Layer_1
 62
7
100
AcDbLine
 10
96.533744
 20
18.500244
 30
0.0
 11
96.533744
 21
15.715044
 31
0.0
  0
LINE
  5
233
100
AcDbEntity
  8
Layer_1
 62
7
100
AcDbLine
 10
96.533744
 20
15.715044
 30
0.0
 11
96.533744
 21
12.929924
 31
0.0
  0
LINE
  5
234
100
AcDbEntity
  8
Layer_1
 62
7
100
AcDbLine
 10
96.533744
 20
12.929924
 30
0.0
 11
95.744680
 21
12.929924
 31
0.0
  0
LINE
  5
235
100
AcDbEntity
  8
Layer_1
 62
7
100
AcDbLine
 10
95.744680
 20
12.929924
 30
0.0
 11
94.955616
 21
12.929924
 31
0.0
  0
LINE
  5
236
100
AcDbEntity
  8
Layer_1
 62
7
100
AcDbLine
 10
94.955616
 20
12.929924
 30
0.0
 11
94.166552
 21
12.929924
 31
0.0
  0
LINE
  5
237
100
AcDbEntity
  8
Layer_1
 62
7
100
AcDbLine
 10
94.166552
 20
12.929924
 30
0.0
 11
93.377488
 21
12.929924
 31
0.0
  0
LINE
  5
238
100
AcDbEntity
  8
Layer_1
 62
7
100
AcDbLine
 10
93.377488
 20
12.929924
 30
0.0
 11
93.377488
 21
18.761924
 31
0.0
  0
LINE
  5
239
100
AcDbEntity
  8
Layer_1
 62
7
100
AcDbLine
 10
93.377488
 20
18.761924
 30
0.0
 11
93.377488
 21
24.593924
 31
0.0
  0
LINE
  5
23a
100
AcDbEntity
  8
Layer_1
 62
7
100
AcDbLine
 10
93.377488
 20
24.593924
 30
0.0
 11
93.377488
 21
30.426004
 31
0.0
  0
LINE
  5
23b
100
AcDbEntity
  8
Layer_1
 62
7
100
AcDbLine
 10
93.377488
 20
30.426004
 30
0.0
 11
93.377488
 21
36.258004
 31
0.0
  0
LINE
  5
23c
100
AcDbEntity
  8
Layer_1
 62
7
100
AcDbLine
 10
119.486864
 20
27.742404
 30
0.0
 11
119.221240
 21
27.843924
 31
0.0
  0
LINE
  5
23d
100
AcDbEntity
  8
Layer_1
 62
7
100
AcDbLine
 10
119.221240
 20
27.843924
 30
0.0
 11
118.955616
 21
27.945524
 31
0.0
  0
LINE
  5
23e
100
AcDbEntity
  8
Layer_1
 62
7
100
AcDbLine
 10
118.955616
 20
27.945524
 30
0.0
 11
118.689992
 21
28.047044
 31
0.0
  0
LINE
  5
23f
100
AcDbEntity
  8
Layer_1
 62
7
100
AcDbLine
 10
118.689992
 20
28.047044
 30
0.0
 11
118.424368
 21
28.148644
 31
0.0
  0
LINE
  5
240
100
AcDbEntity
  8
Layer_1
 62
7
100
AcDbLine
 10
118.424368
 20
28.148644
 30
0.0
 11
118.111864
 21
28.183844
 31
0.0
  0
LINE
  5
241
100
AcDbEntity
  8
Layer_1
 62
7
100
AcDbLine
 10
118.111864
 20
28.183844
 30
0.0
 11
117.799368
 21
28.219044
 31
0.0
  0
LINE
  5
242
100
AcDbEntity
  8
Layer_1
 62
7
100
AcDbLine
 10
117.799368
 20
28.219044
 30
0.0
 11
117.486864
 21
28.254244
 31
0.0
  0
LINE
  5
243
100
AcDbEntity
  8
Layer_1
 62
7
100
AcDbLine
 10
117.486864
 20
28.254244
 30
0.0
 11
117.174368
 21
28.289444
 31
0.0
  0
LINE
  5
244
100
AcDbEntity
  8
Layer_1
 62
7
100
AcDbLine
 10
117.174368
 20
28.289444
 30
0.0
 11
116.236864
 21
27.890964
 31
0.0
  0
LINE
  5
245
100
AcDbEntity
  8
Layer_1
 62
7
100
AcDbLine
 10
116.236864
 20
27.890964
 30
0.0
 11
115.299368
 21
27.492564
 31
0.0
  0
LINE
  5
246
100
AcDbEntity
  8
Layer_1
 62
7
100
AcDbLine
 10
115.299368
 20
27.492564
 30
0.0
 11
114.361864
 21
27.094084
 31
0.0
  0
LINE
  5
247
100
AcDbEntity
  8
Layer_1
 62
7
100
AcDbLine
 10
114.361864
 20
27.094084
 30
0.0
 11
113.424368
 21
26.695684
 31
0.0
  0
LINE
  5
248
100
AcDbEntity
  8
Layer_1
 62
7
100
AcDbLine
 10
113.424368
 20
26.695684
 30
0.0
 11
113.100144
 21
25.558964
 31
0.0
  0
LINE
  5
249
100
AcDbEntity
  8
Layer_1
 62
7
100
AcDbLine
 10
113.100144
 20
25.558964
 30
0.0
 11
112.775928
 21
24.422244
 31
0.0
  0
LINE
  5
24a
100
AcDbEntity
  8
Layer_1
 62
7
100
AcDbLine
 10
112.775928
 20
24.422244
 30
0.0
 11
112.451704
 21
23.285524
 31
0.0
  0
LINE
  5
24b
100
AcDbEntity
  8
Layer_1
 62
7
100
AcDbLine
 10
112.451704
 20
23.285524
 30
0.0
 11
112.127488
 21
22.148804
 31
0.0
  0
LINE
  5
24c
100
AcDbEntity
  8
Layer_1
 62
7
100
AcDbLine
 10
112.127488
 20
22.148804
 30
0.0
 11
112.127488
 21
19.844084
 31
0.0
  0
LINE
  5
24d
100
AcDbEntity
  8
Layer_1
 62
7
100
AcDbLine
 10
112.127488
 20
19.844084
 30
0.0
 11
112.127488
 21
17.539444
 31
0.0
  0
LINE
  5
24e
100
AcDbEntity
  8
Layer_1
 62
7
100
AcDbLine
 10
112.127488
 20
17.539444
 30
0.0
 11
112.127488
 21
15.234724
 31
0.0
  0
LINE
  5
24f
100
AcDbEntity
  8
Layer_1
 62
7
100
AcDbLine
 10
112.127488
 20
15.234724
 30
0.0
 11
112.127488
 21
12.930084
 31
0.0
  0
LINE
  5
250
100
AcDbEntity
  8
Layer_1
 62
7
100
AcDbLine
 10
112.127488
 20
12.930084
 30
0.0
 11
111.404832
 21
12.930084
 31
0.0
  0
LINE
  5
251
100
AcDbEntity
  8
Layer_1
 62
7
100
AcDbLine
 10
111.404832
 20
12.930084
 30
0.0
 11
110.682176
 21
12.930084
 31
0.0
  0
LINE
  5
252
100
AcDbEntity
  8
Layer_1
 62
7
100
AcDbLine
 10
110.682176
 20
12.930084
 30
0.0
 11
109.959520
 21
12.930084
 31
0.0
  0
LINE
  5
253
100
AcDbEntity
  8
Layer_1
 62
7
100
AcDbLine
 10
109.959520
 20
12.930084
 30
0.0
 11
109.236864
 21
12.930084
 31
0.0
  0
LINE
  5
254
100
AcDbEntity
  8
Layer_1
 62
7
100
AcDbLine
 10
109.236864
 20
12.930084
 30
0.0
 11
109.236864
 21
17.305044
 31
0.0
  0
LINE
  5
255
100
AcDbEntity
  8
Layer_1
 62
7
100
AcDbLine
 10
109.236864
 20
17.305044
 30
0.0
 11
109.236864
 21
21.680084
 31
0.0
  0
LINE
  5
256
100
AcDbEntity
  8
Layer_1
 62
7
100
AcDbLine
 10
109.236864
 20
21.680084
 30
0.0
 11
109.236864
 21
26.055044
 31
0.0
  0
LINE
  5
257
100
AcDbEntity
  8
Layer_1
 62
7
100
AcDbLine
 10
109.236864
 20
26.055044
 30
0.0
 11
109.236864
 21
30.430084
 31
0.0
  0
LINE
  5
258
100
AcDbEntity
  8
Layer_1
 62
7
100
AcDbLine
 10
109.236864
 20
30.430084
 30
0.0
 11
109.959520
 21
30.430084
 31
0.0
  0
LINE
  5
259
100
AcDbEntity
  8
Layer_1
 62
7
100
AcDbLine
 10
109.959520
 20
30.430084
 30
0.0
 11
110.682176
 21
30.430084
 31
0.0
  0
LINE
  5
25a
100
AcDbEntity
  8
Layer_1
 62
7
100
AcDbLine
 10
110.682176
 20
30.430084
 30
0.0
 11
111.404832
 21
30.430084
 31
0.0
  0
LINE
  5
25b
100
AcDbEntity
  8
Layer_1
 62
7
100
AcDbLine
 10
111.404832
 20
30.430084
 30
0.0
 11
112.127488
 21
30.430084
 31
0.0
  0
LINE
  5
25c
100
AcDbEntity
  8
Layer_1
 62
7
100
AcDbLine
 10
112.127488
 20
30.430084
 30
0.0
 11
112.127488
 21
29.750404
 31
0.0
  0
LINE
  5
25d
100
AcDbEntity
  8
Layer_1
 62
7
100
AcDbLine
 10
112.127488
 20
29.750404
 30
0.0
 11
112.127488
 21
29.070644
 31
0.0
  0
LINE
  5
25e
100
AcDbEntity
  8
Layer_1
 62
7
100
AcDbLine
 10
112.127488
 20
29.070644
 30
0.0
 11
112.127488
 21
28.390964
 31
0.0
  0
LINE
  5
25f
100
AcDbEntity
  8
Layer_1
 62
7
100
AcDbLine
 10
112.127488
 20
28.390964
 30
0.0
 11
112.127488
 21
27.711284
 31
0.0
  0
LINE
  5
260
100
AcDbEntity
  8
Layer_1
 62
7
100
AcDbLine
 10
112.127488
 20
27.711284
 30
0.0
 11
112.717328
 21
28.301124
 31
0.0
  0
LINE
  5
261
100
AcDbEntity
  8
Layer_1
 62
7
100
AcDbLine
 10
112.717328
 20
28.301124
 30
0.0
 11
113.307176
 21
28.890964
 31
0.0
  0
LINE
  5
262
100
AcDbEntity
  8
Layer_1
 62
7
100
AcDbLine
 10
113.307176
 20
28.890964
 30
0.0
 11
113.897016
 21
29.480884
 31
0.0
  0
LINE
  5
263
100
AcDbEntity
  8
Layer_1
 62
7
100
AcDbLine
 10
113.897016
 20
29.480884
 30
0.0
 11
114.486864
 21
30.070724
 31
0.0
  0
LINE
  5
264
100
AcDbEntity
  8
Layer_1
 62
7
100
AcDbLine
 10
114.486864
 20
30.070724
 30
0.0
 11
115.369680
 21
30.266004
 31
0.0
  0
LINE
  5
265
100
AcDbEntity
  8
Layer_1
 62
7
100
AcDbLine
 10
115.369680
 20
30.266004
 30
0.0
 11
116.252488
 21
30.461284
 31
0.0
  0
LINE
  5
266
100
AcDbEntity
  8
Layer_1
 62
7
100
AcDbLine
 10
116.252488
 20
30.461284
 30
0.0
 11
117.135304
 21
30.656644
 31
0.0
  0
LINE
  5
267
100
AcDbEntity
  8
Layer_1
 62
7
100
AcDbLine
 10
117.135304
 20
30.656644
 30
0.0
 11
118.018120
 21
30.851924
 31
0.0
  0
LINE
  5
268
100
AcDbEntity
  8
Layer_1
 62
7
100
AcDbLine
 10
118.018120
 20
30.851924
 30
0.0
 11
118.182184
 21
30.839924
 31
0.0
  0
LINE
  5
269
100
AcDbEntity
  8
Layer_1
 62
7
100
AcDbLine
 10
118.182184
 20
30.839924
 30
0.0
 11
118.346240
 21
30.827924
 31
0.0
  0
LINE
  5
26a
100
AcDbEntity
  8
Layer_1
 62
7
100
AcDbLine
 10
118.346240
 20
30.827924
 30
0.0
 11
118.510304
 21
30.815924
 31
0.0
  0
LINE
  5
26b
100
AcDbEntity
  8
Layer_1
 62
7
100
AcDbLine
 10
118.510304
 20
30.815924
 30
0.0
 11
118.674368
 21
30.803924
 31
0.0
  0
LINE
  5
26c
100
AcDbEntity
  8
Layer_1
 62
7
100
AcDbLine
 10
118.674368
 20
30.803924
 30
0.0
 11
118.873584
 21
30.776724
 31
0.0
  0
LINE
  5
26d
100
AcDbEntity
  8
Layer_1
 62
7
100
AcDbLine
 10
118.873584
 20
30.776724
 30
0.0
 11
119.072800
 21
30.749524
 31
0.0
  0
LINE
  5
26e
100
AcDbEntity
  8
Layer_1
 62
7
100
AcDbLine
 10
119.072800
 20
30.749524
 30
0.0
 11
119.272024
 21
30.722324
 31
0.0
  0
LINE
  5
26f
100
AcDbEntity
  8
Layer_1
 62
7
100
AcDbLine
 10
119.272024
 20
30.722324
 30
0.0
 11
119.471240
 21
30.695124
 31
0.0
  0
LINE
  5
270
100
AcDbEntity
  8
Layer_1
 62
7
100
AcDbLine
 10
119.471240
 20
30.695124
 30
0.0
 11
119.475240
 21
29.956804
 31
0.0
  0
LINE
  5
271
100
AcDbEntity
  8
Layer_1
 62
7
100
AcDbLine
 10
119.475240
 20
29.956804
 30
0.0
 11
119.479240
 21
29.218564
 31
0.0
  0
LINE
  5
272
100
AcDbEntity
  8
Layer_1
 62
7
100
AcDbLine
 10
119.479240
 20
29.218564
 30
0.0
 11
119.483240
 21
28.480244
 31
0.0
  0
LINE
  5
273
100
AcDbEntity
  8
Layer_1
 62
7
100
AcDbLine
 10
119.483240
 20
28.480244
 30
0.0
 11
119.487240
 21
27.742004
 31
0.0
  0
LINE
  5
274
100
AcDbEntity
  8
Layer_1
 62
7
100
AcDbLine
 10
119.487240
 20
27.742004
 30
0.0
 11
119.487248
 21
27.742084
 31
0.0
  0
LINE
  5
275
100
AcDbEntity
  8
Layer_1
 62
7
100
AcDbLine
 10
119.487248
 20
27.742084
 30
0.0
 11
119.487248
 21
27.742164
 31
0.0
  0
LINE
  5
276
100
AcDbEntity
  8
Layer_1
 62
7
100
AcDbLine
 10
119.487248
 20
27.742164
 30
0.0
 11
119.487256
 21
27.742244
 31
0.0
  0
LINE
  5
277
100
AcDbEntity
  8
Layer_1
 62
7
100
AcDbLine
 10
119.487256
 20
27.742244
 30
0.0
 11
119.486864
 21
27.742404
 31
0.0
  0
LINE
  5
278
100
AcDbEntity
  8
Layer_1
 62
7
100
AcDbLine
 10
136.814992
 20
22.398644
 30
0.0
 11
136.814992
 21
22.047044
 31
0.0
  0
LINE
  5
279
100
AcDbEntity
  8
Layer_1
 62
7
100
AcDbLine
 10
136.814992
 20
22.047044
 30
0.0
 11
136.814992
 21
21.695524
 31
0.0
  0
LINE
  5
27a
100
AcDbEntity
  8
Layer_1
 62
7
100
AcDbLine
 10
136.814992
 20
21.695524
 30
0.0
 11
136.814992
 21
21.343924
 31
0.0
  0
LINE
  5
27b
100
AcDbEntity
  8
Layer_1
 62
7
100
AcDbLine
 10
136.814992
 20
21.343924
 30
0.0
 11
136.814992
 21
20.992404
 31
0.0
  0
LINE
  5
27c
100
AcDbEntity
  8
Layer_1
 62
7
100
AcDbLine
 10
136.814992
 20
20.992404
 30
0.0
 11
133.510304
 21
20.992404
 31
0.0
  0
LINE
  5
27d
100
AcDbEntity
  8
Layer_1
 62
7
100
AcDbLine
 10
133.510304
 20
20.992404
 30
0.0
 11
130.205616
 21
20.992404
 31
0.0
  0
LINE
  5
27e
100
AcDbEntity
  8
Layer_1
 62
7
100
AcDbLine
 10
130.205616
 20
20.992404
 30
0.0
 11
126.900928
 21
20.992404
 31
0.0
  0
LINE
  5
27f
100
AcDbEntity
  8
Layer_1
 62
7
100
AcDbLine
 10
126.900928
 20
20.992404
 30
0.0
 11
123.596240
 21
20.992404
 31
0.0
  0
LINE
  5
280
100
AcDbEntity
  8
Layer_1
 62
7
100
AcDbLine
 10
123.596240
 20
20.992404
 30
0.0
 11
124.041552
 21
19.859604
 31
0.0
  0
LINE
  5
281
100
AcDbEntity
  8
Layer_1
 62
7
100
AcDbLine
 10
124.041552
 20
19.859604
 30
0.0
 11
124.486864
 21
18.726724
 31
0.0
  0
LINE
  5
282
100
AcDbEntity
  8
Layer_1
 62
7
100
AcDbLine
 10
124.486864
 20
18.726724
 30
0.0
 11
124.932176
 21
17.593924
 31
0.0
  0
LINE
  5
283
100
AcDbEntity
  8
Layer_1
 62
7
100
AcDbLine
 10
124.932176
 20
17.593924
 30
0.0
 11
125.377488
 21
16.461124
 31
0.0
  0
LINE
  5
284
100
AcDbEntity
  8
Layer_1
 62
7
100
AcDbLine
 10
125.377488
 20
16.461124
 30
0.0
 11
126.494680
 21
16.074404
 31
0.0
  0
LINE
  5
285
100
AcDbEntity
  8
Layer_1
 62
7
100
AcDbLine
 10
126.494680
 20
16.074404
 30
0.0
 11
127.611864
 21
15.687684
 31
0.0
  0
LINE
  5
286
100
AcDbEntity
  8
Layer_1
 62
7
100
AcDbLine
 10
127.611864
 20
15.687684
 30
0.0
 11
128.729048
 21
15.300964
 31
0.0
  0
LINE
  5
287
100
AcDbEntity
  8
Layer_1
 62
7
100
AcDbLine
 10
128.729048
 20
15.300964
 30
0.0
 11
129.846240
 21
14.914244
 31
0.0
  0
LINE
  5
288
100
AcDbEntity
  8
Layer_1
 62
7
100
AcDbLine
 10
129.846240
 20
14.914244
 30
0.0
 11
130.647024
 21
15.015844
 31
0.0
  0
LINE
  5
289
100
AcDbEntity
  8
Layer_1
 62
7
100
AcDbLine
 10
130.647024
 20
15.015844
 30
0.0
 11
131.447800
 21
15.117364
 31
0.0
  0
LINE
  5
28a
100
AcDbEntity
  8
Layer_1
 62
7
100
AcDbLine
 10
131.447800
 20
15.117364
 30
0.0
 11
132.248584
 21
15.218964
 31
0.0
  0
LINE
  5
28b
100
AcDbEntity
  8
Layer_1
 62
7
100
AcDbLine
 10
132.248584
 20
15.218964
 30
0.0
 11
133.049368
 21
15.320564
 31
0.0
  0
LINE
  5
28c
100
AcDbEntity
  8
Layer_1
 62
7
100
AcDbLine
 10
133.049368
 20
15.320564
 30
0.0
 11
133.822808
 21
15.625204
 31
0.0
  0
LINE
  5
28d
100
AcDbEntity
  8
Layer_1
 62
7
100
AcDbLine
 10
133.822808
 20
15.625204
 30
0.0
 11
134.596240
 21
15.929924
 31
0.0
  0
LINE
  5
28e
100
AcDbEntity
  8
Layer_1
 62
7
100
AcDbLine
 10
134.596240
 20
15.929924
 30
0.0
 11
135.369680
 21
16.234564
 31
0.0
  0
LINE
  5
28f
100
AcDbEntity
  8
Layer_1
 62
7
100
AcDbLine
 10
135.369680
 20
16.234564
 30
0.0
 11
136.143120
 21
16.539284
 31
0.0
  0
LINE
  5
290
100
AcDbEntity
  8
Layer_1
 62
7
100
AcDbLine
 10
136.143120
 20
16.539284
 30
0.0
 11
136.143120
 21
15.859604
 31
0.0
  0
LINE
  5
291
100
AcDbEntity
  8
Layer_1
 62
7
100
AcDbLine
 10
136.143120
 20
15.859604
 30
0.0
 11
136.143120
 21
15.179924
 31
0.0
  0
LINE
  5
292
100
AcDbEntity
  8
Layer_1
 62
7
100
AcDbLine
 10
136.143120
 20
15.179924
 30
0.0
 11
136.143120
 21
14.500244
 31
0.0
  0
LINE
  5
293
100
AcDbEntity
  8
Layer_1
 62
7
100
AcDbLine
 10
136.143120
 20
14.500244
 30
0.0
 11
136.143120
 21
13.820564
 31
0.0
  0
LINE
  5
294
100
AcDbEntity
  8
Layer_1
 62
7
100
AcDbLine
 10
136.143120
 20
13.820564
 30
0.0
 11
135.350152
 21
13.570564
 31
0.0
  0
LINE
  5
295
100
AcDbEntity
  8
Layer_1
 62
7
100
AcDbLine
 10
135.350152
 20
13.570564
 30
0.0
 11
134.557176
 21
13.320564
 31
0.0
  0
LINE
  5
296
100
AcDbEntity
  8
Layer_1
 62
7
100
AcDbLine
 10
134.557176
 20
13.320564
 30
0.0
 11
133.764208
 21
13.070564
 31
0.0
  0
LINE
  5
297
100
AcDbEntity
  8
Layer_1
 62
7
100
AcDbLine
 10
133.764208
 20
13.070564
 30
0.0
 11
132.971240
 21
12.820564
 31
0.0
  0
LINE
  5
298
100
AcDbEntity
  8
Layer_1
 62
7
100
AcDbLine
 10
132.971240
 20
12.820564
 30
0.0
 11
132.147024
 21
12.734644
 31
0.0
  0
LINE
  5
299
100
AcDbEntity
  8
Layer_1
 62
7
100
AcDbLine
 10
132.147024
 20
12.734644
 30
0.0
 11
131.322800
 21
12.648644
 31
0.0
  0
LINE
  5
29a
100
AcDbEntity
  8
Layer_1
 62
7
100
AcDbLine
 10
131.322800
 20
12.648644
 30
0.0
 11
130.498584
 21
12.562724
 31
0.0
  0
LINE
  5
29b
100
AcDbEntity
  8
Layer_1
 62
7
100
AcDbLine
 10
130.498584
 20
12.562724
 30
0.0
 11
129.674368
 21
12.476804
 31
0.0
  0
LINE
  5
29c
100
AcDbEntity
  8
Layer_1
 62
7
100
AcDbLine
 10
129.674368
 20
12.476804
 30
0.0
 11
128.014208
 21
13.086164
 31
0.0
  0
LINE
  5
29d
100
AcDbEntity
  8
Layer_1
 62
7
100
AcDbLine
 10
128.014208
 20
13.086164
 30
0.0
 11
126.354056
 21
13.695524
 31
0.0
  0
LINE
  5
29e
100
AcDbEntity
  8
Layer_1
 62
7
100
AcDbLine
 10
126.354056
 20
13.695524
 30
0.0
 11
124.693896
 21
14.304884
 31
0.0
  0
LINE
  5
29f
100
AcDbEntity
  8
Layer_1
 62
7
100
AcDbLine
 10
124.693896
 20
14.304884
 30
0.0
 11
123.033744
 21
14.914244
 31
0.0
  0
LINE
  5
2a0
100
AcDbEntity
  8
Layer_1
 62
7
100
AcDbLine
 10
123.033744
 20
14.914244
 30
0.0
 11
122.424368
 21
16.562644
 31
0.0
  0
LINE
  5
2a1
100
AcDbEntity
  8
Layer_1
 62
7
100
AcDbLine
 10
122.424368
 20
16.562644
 30
0.0
 11
121.814992
 21
18.211124
 31
0.0
  0
LINE
  5
2a2
100
AcDbEntity
  8
Layer_1
 62
7
100
AcDbLine
 10
121.814992
 20
18.211124
 30
0.0
 11
121.205616
 21
19.859524
 31
0.0
  0
LINE
  5
2a3
100
AcDbEntity
  8
Layer_1
 62
7
100
AcDbLine
 10
121.205616
 20
19.859524
 30
0.0
 11
120.596240
 21
21.508004
 31
0.0
  0
LINE
  5
2a4
100
AcDbEntity
  8
Layer_1
 62
7
100
AcDbLine
 10
120.596240
 20
21.508004
 30
0.0
 11
121.174368
 21
23.211124
 31
0.0
  0
LINE
  5
2a5
100
AcDbEntity
  8
Layer_1
 62
7
100
AcDbLine
 10
121.174368
 20
23.211124
 30
0.0
 11
121.752488
 21
24.914244
 31
0.0
  0
LINE
  5
2a6
100
AcDbEntity
  8
Layer_1
 62
7
100
AcDbLine
 10
121.752488
 20
24.914244
 30
0.0
 11
122.330616
 21
26.617444
 31
0.0
  0
LINE
  5
2a7
100
AcDbEntity
  8
Layer_1
 62
7
100
AcDbLine
 10
122.330616
 20
26.617444
 30
0.0
 11
122.908744
 21
28.320564
 31
0.0
  0
LINE
  5
2a8
100
AcDbEntity
  8
Layer_1
 62
7
100
AcDbLine
 10
122.908744
 20
28.320564
 30
0.0
 11
124.475152
 21
28.953364
 31
0.0
  0
LINE
  5
2a9
100
AcDbEntity
  8
Layer_1
 62
7
100
AcDbLine
 10
124.475152
 20
28.953364
 30
0.0
 11
126.041552
 21
29.586164
 31
0.0
  0
LINE
  5
2aa
100
AcDbEntity
  8
Layer_1
 62
7
100
AcDbLine
 10
126.041552
 20
29.586164
 30
0.0
 11
127.607960
 21
30.218964
 31
0.0
  0
LINE
  5
2ab
100
AcDbEntity
  8
Layer_1
 62
7
100
AcDbLine
 10
127.607960
 20
30.218964
 30
0.0
 11
129.174368
 21
30.851764
 31
0.0
  0
LINE
  5
2ac
100
AcDbEntity
  8
Layer_1
 62
7
100
AcDbLine
 10
129.174368
 20
30.851764
 30
0.0
 11
130.568896
 21
30.281444
 31
0.0
  0
LINE
  5
2ad
100
AcDbEntity
  8
Layer_1
 62
7
100
AcDbLine
 10
130.568896
 20
30.281444
 30
0.0
 11
131.963424
 21
29.711204
 31
0.0
  0
LINE
  5
2ae
100
AcDbEntity
  8
Layer_1
 62
7
100
AcDbLine
 10
131.963424
 20
29.711204
 30
0.0
 11
133.357960
 21
29.140884
 31
0.0
  0
LINE
  5
2af
100
AcDbEntity
  8
Layer_1
 62
7
100
AcDbLine
 10
133.357960
 20
29.140884
 30
0.0
 11
134.752488
 21
28.570564
 31
0.0
  0
LINE
  5
2b0
100
AcDbEntity
  8
Layer_1
 62
7
100
AcDbLine
 10
134.752488
 20
28.570564
 30
0.0
 11
135.268112
 21
27.027604
 31
0.0
  0
LINE
  5
2b1
100
AcDbEntity
  8
Layer_1
 62
7
100
AcDbLine
 10
135.268112
 20
27.027604
 30
0.0
 11
135.783736
 21
25.484564
 31
0.0
  0
LINE
  5
2b2
100
AcDbEntity
  8
Layer_1
 62
7
100
AcDbLine
 10
135.783736
 20
25.484564
 30
0.0
 11
136.299368
 21
23.941604
 31
0.0
  0
LINE
  5
2b3
100
AcDbEntity
  8
Layer_1
 62
7
100
AcDbLine
 10
136.299368
 20
23.941604
 30
0.0
 11
136.814992
 21
22.398644
 31
0.0
  0
LINE
  5
2b4
100
AcDbEntity
  8
Layer_1
 62
7
100
AcDbLine
 10
133.939992
 20
23.242404
 30
0.0
 11
133.607960
 21
24.183764
 31
0.0
  0
LINE
  5
2b5
100
AcDbEntity
  8
Layer_1
 62
7
100
AcDbLine
 10
133.607960
 20
24.183764
 30
0.0
 11
133.275928
 21
25.125204
 31
0.0
  0
LINE
  5
2b6
100
AcDbEntity
  8
Layer_1
 62
7
100
AcDbLine
 10
133.275928
 20
25.125204
 30
0.0
 11
132.943896
 21
26.066644
 31
0.0
  0
LINE
  5
2b7
100
AcDbEntity
  8
Layer_1
 62
7
100
AcDbLine
 10
132.943896
 20
26.066644
 30
0.0
 11
132.611864
 21
27.008004
 31
0.0
  0
LINE
  5
2b8
100
AcDbEntity
  8
Layer_1
 62
7
100
AcDbLine
 10
132.611864
 20
27.008004
 30
0.0
 11
131.760304
 21
27.359524
 31
0.0
  0
LINE
  5
2b9
100
AcDbEntity
  8
Layer_1
 62
7
100
AcDbLine
 10
131.760304
 20
27.359524
 30
0.0
 11
130.908744
 21
27.711124
 31
0.0
  0
LINE
  5
2ba
100
AcDbEntity
  8
Layer_1
 62
7
100
AcDbLine
 10
130.908744
 20
27.711124
 30
0.0
 11
130.057176
 21
28.062644
 31
0.0
  0
LINE
  5
2bb
100
AcDbEntity
  8
Layer_1
 62
7
100
AcDbLine
 10
130.057176
 20
28.062644
 30
0.0
 11
129.205616
 21
28.414244
 31
0.0
  0
LINE
  5
2bc
100
AcDbEntity
  8
Layer_1
 62
7
100
AcDbLine
 10
129.205616
 20
28.414244
 30
0.0
 11
128.240776
 21
28.074404
 31
0.0
  0
LINE
  5
2bd
100
AcDbEntity
  8
Layer_1
 62
7
100
AcDbLine
 10
128.240776
 20
28.074404
 30
0.0
 11
127.275928
 21
27.734564
 31
0.0
  0
LINE
  5
2be
100
AcDbEntity
  8
Layer_1
 62
7
100
AcDbLine
 10
127.275928
 20
27.734564
 30
0.0
 11
126.311088
 21
27.394724
 31
0.0
  0
LINE
  5
2bf
100
AcDbEntity
  8
Layer_1
 62
7
100
AcDbLine
 10
126.311088
 20
27.394724
 30
0.0
 11
125.346240
 21
27.054884
 31
0.0
  0
LINE
  5
2c0
100
AcDbEntity
  8
Layer_1
 62
7
100
AcDbLine
 10
125.346240
 20
27.054884
 30
0.0
 11
124.932176
 21
26.097844
 31
0.0
  0
LINE
  5
2c1
100
AcDbEntity
  8
Layer_1
 62
7
100
AcDbLine
 10
124.932176
 20
26.097844
 30
0.0
 11
124.518112
 21
25.140884
 31
0.0
  0
LINE
  5
2c2
100
AcDbEntity
  8
Layer_1
 62
7
100
AcDbLine
 10
124.518112
 20
25.140884
 30
0.0
 11
124.104056
 21
24.183844
 31
0.0
  0
LINE
  5
2c3
100
AcDbEntity
  8
Layer_1
 62
7
100
AcDbLine
 10
124.104056
 20
24.183844
 30
0.0
 11
123.689992
 21
23.226804
 31
0.0
  0
LINE
  5
2c4
100
AcDbEntity
  8
Layer_1
 62
7
100
AcDbLine
 10
123.689992
 20
23.226804
 30
0.0
 11
126.252488
 21
23.226804
 31
0.0
  0
LINE
  5
2c5
100
AcDbEntity
  8
Layer_1
 62
7
100
AcDbLine
 10
126.252488
 20
23.226804
 30
0.0
 11
128.814992
 21
23.226804
 31
0.0
  0
LINE
  5
2c6
100
AcDbEntity
  8
Layer_1
 62
7
100
AcDbLine
 10
128.814992
 20
23.226804
 30
0.0
 11
131.377488
 21
23.226804
 31
0.0
  0
LINE
  5
2c7
100
AcDbEntity
  8
Layer_1
 62
7
100
AcDbLine
 10
131.377488
 20
23.226804
 30
0.0
 11
133.939992
 21
23.226804
 31
0.0
  0
LINE
  5
2c8
100
AcDbEntity
  8
Layer_1
 62
7
100
AcDbLine
 10
133.939992
 20
23.226804
 30
0.0
 11
133.939992
 21
23.226884
 31
0.0
  0
LINE
  5
2c9
100
AcDbEntity
  8
Layer_1
 62
7
100
AcDbLine
 10
133.939992
 20
23.226884
 30
0.0
 11
133.939992
 21
23.227044
 31
0.0
  0
LINE
  5
2ca
100
AcDbEntity
  8
Layer_1
 62
7
100
AcDbLine
 10
133.939992
 20
23.227044
 30
0.0
 11
133.939992
 21
23.227124
 31
0.0
  0
LINE
  5
2cb
100
AcDbEntity
  8
Layer_1
 62
7
100
AcDbLine
 10
133.939992
 20
23.227124
 30
0.0
 11
133.939992
 21
23.242404
 31
0.0
  0
LINE
  5
2cc
100
AcDbEntity
  8
Layer_1
 62
7
100
AcDbLine
 10
156.471240
 20
22.398644
 30
0.0
 11
156.471240
 21
22.047044
 31
0.0
  0
LINE
  5
2cd
100
AcDbEntity
  8
Layer_1
 62
7
100
AcDbLine
 10
156.471240
 20
22.047044
 30
0.0
 11
156.471240
 21
21.695524
 31
0.0
  0
LINE
  5
2ce
100
AcDbEntity
  8
Layer_1
 62
7
100
AcDbLine
 10
156.471240
 20
21.695524
 30
0.0
 11
156.471240
 21
21.343924
 31
0.0
  0
LINE
  5
2cf
100
AcDbEntity
  8
Layer_1
 62
7
100
AcDbLine
 10
156.471240
 20
21.343924
 30
0.0
 11
156.471240
 21
20.992404
 31
0.0
  0
LINE
  5
2d0
100
AcDbEntity
  8
Layer_1
 62
7
100
AcDbLine
 10
156.471240
 20
20.992404
 30
0.0
 11
153.166552
 21
20.992404
 31
0.0
  0
LINE
  5
2d1
100
AcDbEntity
  8
Layer_1
 62
7
100
AcDbLine
 10
153.166552
 20
20.992404
 30
0.0
 11
149.861864
 21
20.992404
 31
0.0
  0
LINE
  5
2d2
100
AcDbEntity
  8
Layer_1
 62
7
100
AcDbLine
 10
149.861864
 20
20.992404
 30
0.0
 11
146.557176
 21
20.992404
 31
0.0
  0
LINE
  5
2d3
100
AcDbEntity
  8
Layer_1
 62
7
100
AcDbLine
 10
146.557176
 20
20.992404
 30
0.0
 11
143.252488
 21
20.992404
 31
0.0
  0
LINE
  5
2d4
100
AcDbEntity
  8
Layer_1
 62
7
100
AcDbLine
 10
143.252488
 20
20.992404
 30
0.0
 11
143.697800
 21
19.859604
 31
0.0
  0
LINE
  5
2d5
100
AcDbEntity
  8
Layer_1
 62
7
100
AcDbLine
 10
143.697800
 20
19.859604
 30
0.0
 11
144.143112
 21
18.726724
 31
0.0
  0
LINE
  5
2d6
100
AcDbEntity
  8
Layer_1
 62
7
100
AcDbLine
 10
144.143112
 20
18.726724
 30
0.0
 11
144.588432
 21
17.593924
 31
0.0
  0
LINE
  5
2d7
100
AcDbEntity
  8
Layer_1
 62
7
100
AcDbLine
 10
144.588432
 20
17.593924
 30
0.0
 11
145.033744
 21
16.461124
 31
0.0
  0
LINE
  5
2d8
100
AcDbEntity
  8
Layer_1
 62
7
100
AcDbLine
 10
145.033744
 20
16.461124
 30
0.0
 11
146.150928
 21
16.074404
 31
0.0
  0
LINE
  5
2d9
100
AcDbEntity
  8
Layer_1
 62
7
100
AcDbLine
 10
146.150928
 20
16.074404
 30
0.0
 11
147.268112
 21
15.687684
 31
0.0
  0
LINE
  5
2da
100
AcDbEntity
  8
Layer_1
 62
7
100
AcDbLine
 10
147.268112
 20
15.687684
 30
0.0
 11
148.385304
 21
15.300964
 31
0.0
  0
LINE
  5
2db
100
AcDbEntity
  8
Layer_1
 62
7
100
AcDbLine
 10
148.385304
 20
15.300964
 30
0.0
 11
149.502488
 21
14.914244
 31
0.0
  0
LINE
  5
2dc
100
AcDbEntity
  8
Layer_1
 62
7
100
AcDbLine
 10
149.502488
 20
14.914244
 30
0.0
 11
150.303272
 21
15.015844
 31
0.0
  0
LINE
  5
2dd
100
AcDbEntity
  8
Layer_1
 62
7
100
AcDbLine
 10
150.303272
 20
15.015844
 30
0.0
 11
151.104048
 21
15.117364
 31
0.0
  0
LINE
  5
2de
100
AcDbEntity
  8
Layer_1
 62
7
100
AcDbLine
 10
151.104048
 20
15.117364
 30
0.0
 11
151.904832
 21
15.218964
 31
0.0
  0
LINE
  5
2df
100
AcDbEntity
  8
Layer_1
 62
7
100
AcDbLine
 10
151.904832
 20
15.218964
 30
0.0
 11
152.705616
 21
15.320564
 31
0.0
  0
LINE
  5
2e0
100
AcDbEntity
  8
Layer_1
 62
7
100
AcDbLine
 10
152.705616
 20
15.320564
 30
0.0
 11
153.479056
 21
15.625204
 31
0.0
  0
LINE
  5
2e1
100
AcDbEntity
  8
Layer_1
 62
7
100
AcDbLine
 10
153.479056
 20
15.625204
 30
0.0
 11
154.252488
 21
15.929924
 31
0.0
  0
LINE
  5
2e2
100
AcDbEntity
  8
Layer_1
 62
7
100
AcDbLine
 10
154.252488
 20
15.929924
 30
0.0
 11
155.025928
 21
16.234564
 31
0.0
  0
LINE
  5
2e3
100
AcDbEntity
  8
Layer_1
 62
7
100
AcDbLine
 10
155.025928
 20
16.234564
 30
0.0
 11
155.799368
 21
16.539284
 31
0.0
  0
LINE
  5
2e4
100
AcDbEntity
  8
Layer_1
 62
7
100
AcDbLine
 10
155.799368
 20
16.539284
 30
0.0
 11
155.799368
 21
15.859604
 31
0.0
  0
LINE
  5
2e5
100
AcDbEntity
  8
Layer_1
 62
7
100
AcDbLine
 10
155.799368
 20
15.859604
 30
0.0
 11
155.799368
 21
15.179924
 31
0.0
  0
LINE
  5
2e6
100
AcDbEntity
  8
Layer_1
 62
7
100
AcDbLine
 10
155.799368
 20
15.179924
 30
0.0
 11
155.799368
 21
14.500244
 31
0.0
  0
LINE
  5
2e7
100
AcDbEntity
  8
Layer_1
 62
7
100
AcDbLine
 10
155.799368
 20
14.500244
 30
0.0
 11
155.799368
 21
13.820564
 31
0.0
  0
LINE
  5
2e8
100
AcDbEntity
  8
Layer_1
 62
7
100
AcDbLine
 10
155.799368
 20
13.820564
 30
0.0
 11
155.006400
 21
13.570564
 31
0.0
  0
LINE
  5
2e9
100
AcDbEntity
  8
Layer_1
 62
7
100
AcDbLine
 10
155.006400
 20
13.570564
 30
0.0
 11
154.213424
 21
13.320564
 31
0.0
  0
LINE
  5
2ea
100
AcDbEntity
  8
Layer_1
 62
7
100
AcDbLine
 10
154.213424
 20
13.320564
 30
0.0
 11
153.420456
 21
13.070564
 31
0.0
  0
LINE
  5
2eb
100
AcDbEntity
  8
Layer_1
 62
7
100
AcDbLine
 10
153.420456
 20
13.070564
 30
0.0
 11
152.627488
 21
12.820564
 31
0.0
  0
LINE
  5
2ec
100
AcDbEntity
  8
Layer_1
 62
7
100
AcDbLine
 10
152.627488
 20
12.820564
 30
0.0
 11
151.803272
 21
12.734644
 31
0.0
  0
LINE
  5
2ed
100
AcDbEntity
  8
Layer_1
 62
7
100
AcDbLine
 10
151.803272
 20
12.734644
 30
0.0
 11
150.979048
 21
12.648644
 31
0.0
  0
LINE
  5
2ee
100
AcDbEntity
  8
Layer_1
 62
7
100
AcDbLine
 10
150.979048
 20
12.648644
 30
0.0
 11
150.154832
 21
12.562724
 31
0.0
  0
LINE
  5
2ef
100
AcDbEntity
  8
Layer_1
 62
7
100
AcDbLine
 10
150.154832
 20
12.562724
 30
0.0
 11
149.330616
 21
12.476804
 31
0.0
  0
LINE
  5
2f0
100
AcDbEntity
  8
Layer_1
 62
7
100
AcDbLine
 10
149.330616
 20
12.476804
 30
0.0
 11
147.670456
 21
13.086164
 31
0.0
  0
LINE
  5
2f1
100
AcDbEntity
  8
Layer_1
 62
7
100
AcDbLine
 10
147.670456
 20
13.086164
 30
0.0
 11
146.010304
 21
13.695524
 31
0.0
  0
LINE
  5
2f2
100
AcDbEntity
  8
Layer_1
 62
7
100
AcDbLine
 10
146.010304
 20
13.695524
 30
0.0
 11
144.350144
 21
14.304884
 31
0.0
  0
LINE
  5
2f3
100
AcDbEntity
  8
Layer_1
 62
7
100
AcDbLine
 10
144.350144
 20
14.304884
 30
0.0
 11
142.689992
 21
14.914244
 31
0.0
  0
LINE
  5
2f4
100
AcDbEntity
  8
Layer_1
 62
7
100
AcDbLine
 10
142.689992
 20
14.914244
 30
0.0
 11
142.080616
 21
16.562644
 31
0.0
  0
LINE
  5
2f5
100
AcDbEntity
  8
Layer_1
 62
7
100
AcDbLine
 10
142.080616
 20
16.562644
 30
0.0
 11
141.471240
 21
18.211124
 31
0.0
  0
LINE
  5
2f6
100
AcDbEntity
  8
Layer_1
 62
7
100
AcDbLine
 10
141.471240
 20
18.211124
 30
0.0
 11
140.861864
 21
19.859524
 31
0.0
  0
LINE
  5
2f7
100
AcDbEntity
  8
Layer_1
 62
7
100
AcDbLine
 10
140.861864
 20
19.859524
 30
0.0
 11
140.252488
 21
21.508004
 31
0.0
  0
LINE
  5
2f8
100
AcDbEntity
  8
Layer_1
 62
7
100
AcDbLine
 10
140.252488
 20
21.508004
 30
0.0
 11
140.830616
 21
23.211124
 31
0.0
  0
LINE
  5
2f9
100
AcDbEntity
  8
Layer_1
 62
7
100
AcDbLine
 10
140.830616
 20
23.211124
 30
0.0
 11
141.408736
 21
24.914244
 31
0.0
  0
LINE
  5
2fa
100
AcDbEntity
  8
Layer_1
 62
7
100
AcDbLine
 10
141.408736
 20
24.914244
 30
0.0
 11
141.986864
 21
26.617444
 31
0.0
  0
LINE
  5
2fb
100
AcDbEntity
  8
Layer_1
 62
7
100
AcDbLine
 10
141.986864
 20
26.617444
 30
0.0
 11
142.564992
 21
28.320564
 31
0.0
  0
LINE
  5
2fc
100
AcDbEntity
  8
Layer_1
 62
7
100
AcDbLine
 10
142.564992
 20
28.320564
 30
0.0
 11
144.131400
 21
28.953364
 31
0.0
  0
LINE
  5
2fd
100
AcDbEntity
  8
Layer_1
 62
7
100
AcDbLine
 10
144.131400
 20
28.953364
 30
0.0
 11
145.697800
 21
29.586164
 31
0.0
  0
LINE
  5
2fe
100
AcDbEntity
  8
Layer_1
 62
7
100
AcDbLine
 10
145.697800
 20
29.586164
 30
0.0
 11
147.264208
 21
30.218964
 31
0.0
  0
LINE
  5
2ff
100
AcDbEntity
  8
Layer_1
 62
7
100
AcDbLine
 10
147.264208
 20
30.218964
 30
0.0
 11
148.830616
 21
30.851764
 31
0.0
  0
LINE
  5
300
100
AcDbEntity
  8
Layer_1
 62
7
100
AcDbLine
 10
148.830616
 20
30.851764
 30
0.0
 11
150.225144
 21
30.281444
 31
0.0
  0
LINE
  5
301
100
AcDbEntity
  8
Layer_1
 62
7
100
AcDbLine
 10
150.225144
 20
30.281444
 30
0.0
 11
151.619680
 21
29.711204
 31
0.0
  0
LINE
  5
302
100
AcDbEntity
  8
Layer_1
 62
7
100
AcDbLine
 10
151.619680
 20
29.711204
 30
0.0
 11
153.014208
 21
29.140884
 31
0.0
  0
LINE
  5
303
100
AcDbEntity
  8
Layer_1
 62
7
100
AcDbLine
 10
153.014208
 20
29.140884
 30
0.0
 11
154.408744
 21
28.570564
 31
0.0
  0
LINE
  5
304
100
AcDbEntity
  8
Layer_1
 62
7
100
AcDbLine
 10
154.408744
 20
28.570564
 30
0.0
 11
154.924368
 21
27.027604
 31
0.0
  0
LINE
  5
305
100
AcDbEntity
  8
Layer_1
 62
7
100
AcDbLine
 10
154.924368
 20
27.027604
 30
0.0
 11
155.439992
 21
25.484564
 31
0.0
  0
LINE
  5
306
100
AcDbEntity
  8
Layer_1
 62
7
100
AcDbLine
 10
155.439992
 20
25.484564
 30
0.0
 11
155.955616
 21
23.941604
 31
0.0
  0
LINE
  5
307
100
AcDbEntity
  8
Layer_1
 62
7
100
AcDbLine
 10
155.955616
 20
23.941604
 30
0.0
 11
156.471240
 21
22.398644
 31
0.0
  0
LINE
  5
308
100
AcDbEntity
  8
Layer_1
 62
7
100
AcDbLine
 10
153.596240
 20
23.242404
 30
0.0
 11
153.264208
 21
24.183764
 31
0.0
  0
LINE
  5
309
100
AcDbEntity
  8
Layer_1
 62
7
100
AcDbLine
 10
153.264208
 20
24.183764
 30
0.0
 11
152.932176
 21
25.125204
 31
0.0
  0
LINE
  5
30a
100
AcDbEntity
  8
Layer_1
 62
7
100
AcDbLine
 10
152.932176
 20
25.125204
 30
0.0
 11
152.600152
 21
26.066644
 31
0.0
  0
LINE
  5
30b
100
AcDbEntity
  8
Layer_1
 62
7
100
AcDbLine
 10
152.600152
 20
26.066644
 30
0.0
 11
152.268120
 21
27.008004
 31
0.0
  0
LINE
  5
30c
100
AcDbEntity
  8
Layer_1
 62
7
100
AcDbLine
 10
152.268120
 20
27.008004
 30
0.0
 11
151.416552
 21
27.359524
 31
0.0
  0
LINE
  5
30d
100
AcDbEntity
  8
Layer_1
 62
7
100
AcDbLine
 10
151.416552
 20
27.359524
 30
0.0
 11
150.564992
 21
27.711124
 31
0.0
  0
LINE
  5
30e
100
AcDbEntity
  8
Layer_1
 62
7
100
AcDbLine
 10
150.564992
 20
27.711124
 30
0.0
 11
149.713424
 21
28.062644
 31
0.0
  0
LINE
  5
30f
100
AcDbEntity
  8
Layer_1
 62
7
100
AcDbLine
 10
149.713424
 20
28.062644
 30
0.0
 11
148.861864
 21
28.414244
 31
0.0
  0
LINE
  5
310
100
AcDbEntity
  8
Layer_1
 62
7
100
AcDbLine
 10
148.861864
 20
28.414244
 30
0.0
 11
147.897016
 21
28.074404
 31
0.0
  0
LINE
  5
311
100
AcDbEntity
  8
Layer_1
 62
7
100
AcDbLine
 10
147.897016
 20
28.074404
 30
0.0
 11
146.932176
 21
27.734564
 31
0.0
  0
LINE
  5
312
100
AcDbEntity
  8
Layer_1
 62
7
100
AcDbLine
 10
146.932176
 20
27.734564
 30
0.0
 11
145.967328
 21
27.394724
 31
0.0
  0
LINE
  5
313
100
AcDbEntity
  8
Layer_1
 62
7
100
AcDbLine
 10
145.967328
 20
27.394724
 30
0.0
 11
145.002488
 21
27.054884
 31
0.0
  0
LINE
  5
314
100
AcDbEntity
  8
Layer_1
 62
7
100
AcDbLine
 10
145.002488
 20
27.054884
 30
0.0
 11
144.588424
 21
26.097844
 31
0.0
  0
LINE
  5
315
100
AcDbEntity
  8
Layer_1
 62
7
100
AcDbLine
 10
144.588424
 20
26.097844
 30
0.0
 11
144.174360
 21
25.140884
 31
0.0
  0
LINE
  5
316
100
AcDbEntity
  8
Layer_1
 62
7
100
AcDbLine
 10
144.174360
 20
25.140884
 30
0.0
 11
143.760304
 21
24.183844
 31
0.0
  0
LINE
  5
317
100
AcDbEntity
  8
Layer_1
 62
7
100
AcDbLine
 10
143.760304
 20
24.183844
 30
0.0
 11
143.346240
 21
23.226804
 31
0.0
  0
LINE
  5
318
100
AcDbEntity
  8
Layer_1
 62
7
100
AcDbLine
 10
143.346240
 20
23.226804
 30
0.0
 11
145.908736
 21
23.226804
 31
0.0
  0
LINE
  5
319
100
AcDbEntity
  8
Layer_1
 62
7
100
AcDbLine
 10
145.908736
 20
23.226804
 30
0.0
 11
148.471240
 21
23.226804
 31
0.0
  0
LINE
  5
31a
100
AcDbEntity
  8
Layer_1
 62
7
100
AcDbLine
 10
148.471240
 20
23.226804
 30
0.0
 11
151.033736
 21
23.226804
 31
0.0
  0
LINE
  5
31b
100
AcDbEntity
  8
Layer_1
 62
7
100
AcDbLine
 10
151.033736
 20
23.226804
 30
0.0
 11
153.596240
 21
23.226804
 31
0.0
  0
LINE
  5
31c
100
AcDbEntity
  8
Layer_1
 62
7
100
AcDbLine
 10
153.596240
 20
23.226804
 30
0.0
 11
153.596240
 21
23.226884
 31
0.0
  0
LINE
  5
31d
100
AcDbEntity
  8
Layer_1
 62
7
100
AcDbLine
 10
153.596240
 20
23.226884
 30
0.0
 11
153.596240
 21
23.227044
 31
0.0
  0
LINE
  5
31e
100
AcDbEntity
  8
Layer_1
 62
7
100
AcDbLine
 10
153.596240
 20
23.227044
 30
0.0
 11
153.596240
 21
23.227124
 31
0.0
  0
LINE
  5
31f
100
AcDbEntity
  8
Layer_1
 62
7
100
AcDbLine
 10
153.596240
 20
23.227124
 30
0.0
 11
153.596240
 21
23.242404
 31
0.0
  0
ENDSEC
  0
SECTION
  2
OBJECTS
  0
DICTIONARY
  5
C
330
0
100
AcDbDictionary
  3
ACAD_GROUP
350
D
  3
ACAD_MLINESTYLE
350
17
  0
DICTIONARY
  5
D
330
C
100
AcDbDictionary
  0
DICTIONARY
  5
1A
330
C
100
AcDbDictionary
  0
DICTIONARY
  5
17
330
C
100
AcDbDictionary
  3
STANDARD
350
18
  0
DICTIONARY
  5
19
330
C
100
AcDbDictionary
  0
ENDSEC
  0
EOF
